<svg width="50" height="50" viewBox="0 0 50 50" fill="none" xmlns="http://www.w3.org/2000/svg">
<g clip-path="url(#clip0_227_40)">
<path d="M38.9854 25.0001H29.1667C28.0616 25.0001 27.0018 24.5611 26.2204 23.7797C25.439 22.9983 25 21.9385 25 20.8334V10.9876C25.0029 10.0292 24.7853 9.08302 24.3641 8.22217C23.9428 7.36132 23.3293 6.60887 22.5709 6.02299C21.8522 5.45385 21.0123 5.05752 20.1161 4.86462C19.2199 4.67172 18.2913 4.68742 17.4021 4.91049C12.3514 6.16426 7.87989 9.10437 4.72706 13.2446C1.57423 17.3848 -0.0710596 22.4771 0.063285 27.6794C0.19763 32.8816 2.10356 37.8823 5.46588 41.8542C8.8282 45.8262 13.4455 48.5316 18.5542 49.523C24.2982 50.6224 30.2451 49.4843 35.1772 46.3416C40.1093 43.1989 43.6533 38.2895 45.0834 32.6188C45.3073 31.7285 45.3236 30.7986 45.1311 29.901C44.9385 29.0033 44.5423 28.1619 43.9729 27.4417C43.3801 26.6844 42.6234 26.0712 41.7595 25.6483C40.8957 25.2254 39.9472 25.0038 38.9854 25.0001ZM41.0438 31.6001C40.2461 34.8123 38.6095 37.755 36.3014 40.1272C33.9933 42.4994 31.0965 44.2159 27.9074 45.1013C24.7182 45.9866 21.3511 46.009 18.1505 45.1661C14.9498 44.3232 12.0305 42.6452 9.69109 40.3039C7.35169 37.9625 5.67617 35.0418 4.83591 31.8405C3.99565 28.6391 4.02079 25.2721 4.90878 22.0836C5.79676 18.8952 7.51572 15.9998 9.88983 13.6937C12.2639 11.3876 15.208 9.75342 18.4209 8.9584C18.6957 8.88973 18.9829 8.88637 19.2592 8.9486C19.5356 9.01082 19.7936 9.1369 20.0125 9.31674C20.2711 9.51384 20.4807 9.76784 20.6252 10.059C20.7697 10.3502 20.8452 10.6708 20.8459 10.9959V20.8334C20.8459 23.0435 21.7238 25.1632 23.2866 26.726C24.8494 28.2888 26.9691 29.1667 29.1792 29.1667H38.9959C39.3238 29.1681 39.6471 29.2438 39.9416 29.3881C40.2361 29.5324 40.4939 29.7417 40.6959 30.0001C40.873 30.222 40.9963 30.482 41.0563 30.7595C41.1163 31.0371 41.1134 31.3248 41.0438 31.6001Z" fill="#1A2D67"/>
<path d="M49.2727 15.5124C48.3136 11.9863 46.4503 8.77182 43.8673 6.18698C41.2843 3.60214 38.0711 1.73659 34.5456 0.774944C34.176 0.675589 33.795 0.625158 33.4123 0.624944C32.8618 0.619714 32.3157 0.723627 31.8056 0.930679C31.2955 1.13773 30.8315 1.44382 30.4404 1.83125C30.0493 2.21868 29.7388 2.67978 29.527 3.1879C29.3151 3.69602 29.206 4.24109 29.2061 4.79161V14.5833C29.2061 16.2409 29.8645 17.8306 31.0366 19.0027C32.2087 20.1748 33.7984 20.8333 35.4561 20.8333H45.2873C45.9304 20.8271 46.5633 20.6727 47.1371 20.3822C47.7108 20.0917 48.2098 19.6728 48.5953 19.158C48.9808 18.6433 49.2425 18.0467 49.36 17.4144C49.4775 16.7821 49.4476 16.1313 49.2727 15.5124ZM44.0686 16.6666H35.4477C34.8952 16.6666 34.3653 16.4471 33.9746 16.0564C33.5839 15.6657 33.3644 15.1358 33.3644 14.5833L33.3477 4.80619C33.363 4.79517 33.381 4.78867 33.3998 4.78744H33.454C36.2917 5.56054 38.877 7.06434 40.9519 9.14878C43.0269 11.2332 44.5189 13.8254 45.279 16.6666H44.0686Z" fill="#1A2D67"/>
</g>
<defs>
<clipPath id="clip0_227_40">
<rect width="50" height="50" fill="white"/>
</clipPath>
</defs>
</svg>
