<svg width="20" height="20" viewBox="0 0 20 20" fill="none" xmlns="http://www.w3.org/2000/svg">
<g id="arrow-circle-right 2" clip-path="url(#clip0_371_18)">
<path id="Vector" d="M10 -4.37114e-07C8.02219 -5.23567e-07 6.08879 0.586489 4.4443 1.6853C2.7998 2.78412 1.51808 4.3459 0.761204 6.17317C0.00432773 8.00043 -0.193706 10.0111 0.192146 11.9509C0.577999 13.8907 1.53041 15.6725 2.92893 17.0711C4.32746 18.4696 6.10929 19.422 8.0491 19.8079C9.98891 20.1937 11.9996 19.9957 13.8268 19.2388C15.6541 18.4819 17.2159 17.2002 18.3147 15.5557C19.4135 13.9112 20 11.9778 20 10C19.9971 7.34872 18.9426 4.80684 17.0679 2.9321C15.1932 1.05736 12.6513 0.00286725 10 -4.37114e-07ZM10 18.3333C8.35182 18.3333 6.74066 17.8446 5.37025 16.9289C3.99984 16.0132 2.93173 14.7117 2.301 13.189C1.67027 11.6663 1.50524 9.99076 1.82679 8.37425C2.14833 6.75774 2.942 5.27288 4.10744 4.10744C5.27288 2.94201 6.75774 2.14833 8.37425 1.82679C9.99076 1.50525 11.6663 1.67027 13.189 2.301C14.7117 2.93173 16.0132 3.99984 16.9289 5.37025C17.8446 6.74066 18.3333 8.35182 18.3333 10C18.3309 12.2094 17.4522 14.3276 15.8899 15.8899C14.3276 17.4522 12.2094 18.3309 10 18.3333ZM14.7558 10.9342C14.5996 10.7779 14.3876 10.6902 14.1667 10.6902C13.9457 10.6902 13.7338 10.7779 13.5775 10.9342L10.8333 13.6775L10.8275 5C10.8275 4.77899 10.7397 4.56702 10.5834 4.41074C10.4271 4.25446 10.2152 4.16667 9.99417 4.16667C9.77315 4.16667 9.56119 4.25446 9.40491 4.41074C9.24863 4.56702 9.16083 4.77899 9.16083 5L9.16667 13.6783L6.4225 10.9342C6.34733 10.8521 6.25648 10.7859 6.15531 10.7395C6.05414 10.6931 5.9447 10.6674 5.83345 10.664C5.7222 10.6606 5.6114 10.6795 5.50757 10.7196C5.40375 10.7597 5.30902 10.8203 5.22896 10.8976C5.14891 10.9749 5.08516 11.0675 5.04147 11.1699C4.99778 11.2722 4.97504 11.3823 4.97459 11.4936C4.97415 11.6049 4.996 11.7152 5.03886 11.8179C5.08173 11.9206 5.14473 12.0137 5.22416 12.0917L5.24416 12.1125L8.23167 15.1008C8.46382 15.333 8.73943 15.5172 9.04278 15.6429C9.34612 15.7685 9.67124 15.8332 9.99958 15.8332C10.3279 15.8332 10.653 15.7685 10.9564 15.6429C11.2597 15.5172 11.5353 15.333 11.7675 15.1008L14.7558 12.1125C14.9121 11.9562 14.9998 11.7443 14.9998 11.5233C14.9998 11.3024 14.9121 11.0904 14.7558 10.9342Z" fill="#5C98D0"/>
</g>
<defs>
<clipPath id="clip0_371_18">
<rect width="20" height="20" fill="white" transform="translate(20) rotate(90)"/>
</clipPath>
</defs>
</svg>
