<svg width="20" height="20" viewBox="0 0 20 20" fill="none" xmlns="http://www.w3.org/2000/svg">
<g id="arrow-circle-right 1" clip-path="url(#clip0_371_16)">
<path id="Vector" d="M0 10C0 11.9778 0.58649 13.9112 1.6853 15.5557C2.78412 17.2002 4.3459 18.4819 6.17317 19.2388C8.00043 19.9957 10.0111 20.1937 11.9509 19.8079C13.8907 19.422 15.6725 18.4696 17.0711 17.0711C18.4696 15.6725 19.422 13.8907 19.8079 11.9509C20.1937 10.0111 19.9957 8.00043 19.2388 6.17317C18.4819 4.3459 17.2002 2.78412 15.5557 1.6853C13.9112 0.58649 11.9778 0 10 0C7.34872 0.00286757 4.80684 1.05736 2.9321 2.9321C1.05736 4.80684 0.00286757 7.34872 0 10ZM18.3333 10C18.3333 11.6482 17.8446 13.2593 16.9289 14.6298C16.0132 16.0002 14.7117 17.0683 13.189 17.699C11.6663 18.3297 9.99076 18.4948 8.37425 18.1732C6.75774 17.8517 5.27288 17.058 4.10744 15.8926C2.94201 14.7271 2.14833 13.2423 1.82679 11.6258C1.50525 10.0092 1.67027 8.33369 2.301 6.81097C2.93173 5.28825 3.99984 3.98677 5.37025 3.07109C6.74066 2.15541 8.35182 1.66667 10 1.66667C12.2094 1.66909 14.3276 2.54785 15.8899 4.11012C17.4522 5.6724 18.3309 7.79061 18.3333 10ZM10.9342 5.24417C10.7779 5.40044 10.6902 5.61236 10.6902 5.83333C10.6902 6.0543 10.7779 6.26623 10.9342 6.4225L13.6775 9.16667L5 9.1725C4.77899 9.1725 4.56703 9.2603 4.41074 9.41658C4.25446 9.57286 4.16667 9.78482 4.16667 10.0058C4.16667 10.2268 4.25446 10.4388 4.41074 10.5951C4.56703 10.7514 4.77899 10.8392 5 10.8392L13.6783 10.8333L10.9342 13.5775C10.8521 13.6527 10.7859 13.7435 10.7395 13.8447C10.6931 13.9459 10.6674 14.0553 10.664 14.1665C10.6606 14.2778 10.6795 14.3886 10.7196 14.4924C10.7597 14.5962 10.8203 14.691 10.8976 14.771C10.9749 14.8511 11.0675 14.9148 11.1699 14.9585C11.2722 15.0022 11.3823 15.025 11.4936 15.0254C11.6049 15.0259 11.7152 15.004 11.8179 14.9611C11.9206 14.9183 12.0137 14.8553 12.0917 14.7758L12.1125 14.7558L15.1008 11.7683C15.333 11.5362 15.5172 11.2606 15.6429 10.9572C15.7685 10.6539 15.8332 10.3288 15.8332 10.0004C15.8332 9.67208 15.7685 9.34695 15.6429 9.04361C15.5172 8.74027 15.333 8.46465 15.1008 8.2325L12.1125 5.24417C11.9562 5.08794 11.7443 5.00018 11.5233 5.00018C11.3024 5.00018 11.0904 5.08794 10.9342 5.24417Z" fill="#5DC7DE"/>
</g>
<defs>
<clipPath id="clip0_371_16">
<rect width="20" height="20" fill="white"/>
</clipPath>
</defs>
</svg>
