<svg width="50" height="50" viewBox="0 0 50 50" fill="none" xmlns="http://www.w3.org/2000/svg">
<path d="M37.9458 18.9542C38.7521 19.775 38.7396 21.0938 37.9167 21.9L28.6958 30.9521C27.0646 32.5521 24.9646 33.35 22.8625 33.35C20.7833 33.35 18.7042 32.5667 17.0792 30.9979L13.1229 27.1083C12.3021 26.3021 12.2917 24.9833 13.0979 24.1625C13.9021 23.3396 15.225 23.3292 16.0438 24.1375L19.9875 28.0146C21.6042 29.5771 24.1562 29.5687 25.7812 27.9771L35 18.9271C35.8187 18.1187 37.1333 18.1333 37.9458 18.9542ZM50 25C50 38.7854 38.7854 50 25 50C11.2146 50 0 38.7854 0 25C0 11.2146 11.2146 0 25 0C38.7854 0 50 11.2146 50 25ZM45.8333 25C45.8333 13.5125 36.4875 4.16667 25 4.16667C13.5125 4.16667 4.16667 13.5125 4.16667 25C4.16667 36.4875 13.5125 45.8333 25 45.8333C36.4875 45.8333 45.8333 36.4875 45.8333 25Z" fill="#333333"/>
</svg>
