<svg width="20" height="20" viewBox="0 0 20 20" fill="none" xmlns="http://www.w3.org/2000/svg">
<g id="lock 1" clip-path="url(#clip0_371_13)">
<path id="Vector" d="M15.8337 7.02V5.83333C15.8337 4.28624 15.2191 2.80251 14.1251 1.70854C13.0312 0.614582 11.5474 0 10.0003 0C8.45323 0 6.9695 0.614582 5.87554 1.70854C4.78157 2.80251 4.16699 4.28624 4.16699 5.83333V7.02C3.42479 7.34392 2.79307 7.8771 2.34907 8.55434C1.90508 9.23158 1.66806 10.0235 1.66699 10.8333V15.8333C1.66832 16.938 2.10773 17.997 2.88884 18.7782C3.66996 19.5593 4.729 19.9987 5.83366 20H14.167C15.2717 19.9987 16.3307 19.5593 17.1118 18.7782C17.8929 17.997 18.3323 16.938 18.3337 15.8333V10.8333C18.3326 10.0235 18.0956 9.23158 17.6516 8.55434C17.2076 7.8771 16.5759 7.34392 15.8337 7.02ZM5.83366 5.83333C5.83366 4.72826 6.27265 3.66846 7.05405 2.88706C7.83545 2.10565 8.89526 1.66667 10.0003 1.66667C11.1054 1.66667 12.1652 2.10565 12.9466 2.88706C13.728 3.66846 14.167 4.72826 14.167 5.83333V6.66667H5.83366V5.83333ZM16.667 15.8333C16.667 16.4964 16.4036 17.1323 15.9348 17.6011C15.4659 18.0699 14.83 18.3333 14.167 18.3333H5.83366C5.17062 18.3333 4.53473 18.0699 4.06589 17.6011C3.59705 17.1323 3.33366 16.4964 3.33366 15.8333V10.8333C3.33366 10.1703 3.59705 9.53441 4.06589 9.06557C4.53473 8.59672 5.17062 8.33333 5.83366 8.33333H14.167C14.83 8.33333 15.4659 8.59672 15.9348 9.06557C16.4036 9.53441 16.667 10.1703 16.667 10.8333V15.8333Z" fill="#25C8AA"/>
<path id="Vector_2" d="M10.0003 11.6667C9.77931 11.6667 9.56735 11.7545 9.41107 11.9107C9.25479 12.067 9.16699 12.279 9.16699 12.5V14.1667C9.16699 14.3877 9.25479 14.5996 9.41107 14.7559C9.56735 14.9122 9.77931 15 10.0003 15C10.2213 15 10.4333 14.9122 10.5896 14.7559C10.7459 14.5996 10.8337 14.3877 10.8337 14.1667V12.5C10.8337 12.279 10.7459 12.067 10.5896 11.9107C10.4333 11.7545 10.2213 11.6667 10.0003 11.6667Z" fill="#25C8AA"/>
</g>
<defs>
<clipPath id="clip0_371_13">
<rect width="20" height="20" fill="white"/>
</clipPath>
</defs>
</svg>
