<svg width="49" height="50" viewBox="0 0 49 50" fill="none" xmlns="http://www.w3.org/2000/svg">
<path d="M37.1761 40.6382C37.1761 41.0696 36.8484 41.2954 36.5253 41.2954C36.244 41.2954 36.0192 41.1294 35.9237 40.8511C30.56 25.2426 24.2619 18.8158 8.96667 13.3445C8.5848 13.2076 8.49835 12.8627 8.54129 12.609C8.58252 12.3583 8.77404 12.0653 9.17399 12.0653H33.2658C35.4221 12.0653 37.1761 13.8555 37.1761 16.0561V40.6382ZM24.4997 0C10.9687 0 0 11.1925 0 24.9997C0 38.8068 10.9687 50 24.4997 50C38.0313 50 49 38.8068 49 24.9997C49 11.1925 38.0313 0 24.4997 0Z" fill="#3555AE"/>
</svg>
