<svg width="833" height="422" viewBox="0 0 833 422" fill="none" xmlns="http://www.w3.org/2000/svg">
<path d="M782 358C782 445.261 722.761 383 635.5 383C548.239 383 466 445.261 466 358C466 270.739 536.739 200 624 200C711.261 200 782 270.739 782 358Z" fill="#DFF0FF"/>
<path d="M524 325.397C524 446.567 438.703 360.112 313.059 360.112C187.414 360.112 69 446.567 69 325.397C69 204.227 170.855 106 296.5 106C422.145 106 524 204.227 524 325.397Z" fill="#C4E2FC"/>
<rect y="352" width="824" height="69" fill="#ECECEC"/>
<path d="M558.224 156.596V252.919H543.353L550.113 159.299L558.224 156.596Z" fill="#5C98D0"/>
<path d="M678.544 247.849L579.855 255.961L585.263 264.41L678.544 247.849Z" fill="#5C98D0"/>
<path d="M456.493 252.919L486.911 254.609L483.193 259.003L456.493 252.919Z" fill="#5C98D0"/>
<rect x="491.305" y="312.741" width="17.5748" height="12.8431" fill="#D9D9D9"/>
<path d="M608.245 290.773C608.245 287.226 611.12 284.351 614.666 284.351C618.213 284.351 621.088 287.226 621.088 290.773V307.671C621.088 311.218 618.213 314.093 614.666 314.093C611.12 314.093 608.245 311.218 608.245 307.671V290.773Z" fill="#D9D9D9"/>
<path d="M505.5 352.285H496.375V336.4H499.078V325.584H502.796V336.4H505.162L505.5 352.285Z" fill="#333333"/>
<path d="M471.026 352.285V345.187H481.503V352.285H491.305V331.668H481.503V337.076H479.138V314.093H488.601V303.954H465.956V314.093H473.73V337.076H471.026V331.668H462.577V352.285H471.026Z" fill="#333333"/>
<path d="M430.469 290.773C430.469 287.226 433.344 284.351 436.89 284.351C440.437 284.351 443.312 287.226 443.312 290.773V307.671C443.312 311.218 440.437 314.093 436.89 314.093C433.344 314.093 430.469 311.218 430.469 307.671V290.773Z" fill="#5C98D0"/>
<path d="M305.417 268.804L470.458 292.125L473.73 306.658L305.417 268.804Z" fill="#5C98D0"/>
<mask id="mask0_64_252" style="mask-type:alpha" maskUnits="userSpaceOnUse" x="305" y="268" width="169" height="39">
<path d="M305.417 268.804L470.458 292.125L473.73 306.658L305.417 268.804Z" fill="#5C98D0"/>
<path d="M305.417 268.804L470.458 292.125L473.73 306.658L305.417 268.804Z" fill="white"/>
</mask>
<g mask="url(#mask0_64_252)">
<path d="M301.736 268.804L475.775 300.236V313.079L301.736 268.804Z" fill="#ECECEC"/>
<path d="M301.736 268.804L475.775 300.236V313.079L301.736 268.804Z" fill="#1A2D67"/>
</g>
<rect x="465.618" y="250.553" width="133.163" height="67.5955" rx="33.7978" fill="#C7C7C7"/>
<mask id="mask1_64_252" style="mask-type:alpha" maskUnits="userSpaceOnUse" x="465" y="250" width="134" height="69">
<rect x="465.618" y="250.553" width="133.163" height="67.5955" rx="33.7978" fill="white"/>
</mask>
<g mask="url(#mask1_64_252)">
<rect x="457.506" y="250.553" width="133.163" height="67.5955" rx="33.7978" fill="#D9D9D9"/>
<path d="M471.026 287.393H462.914V307.333L486.235 324.232L596.077 329.978L601.147 287.393H534.227C502.052 313.079 478.686 298.095 471.026 287.393Z" fill="#5C98D0"/>
</g>
<path d="M549.135 266.335C549.071 266.345 548.934 266.362 548.827 266.375C548.724 266.388 548.59 266.411 548.53 266.426C548.473 266.442 548.382 266.466 548.329 266.478C548.045 266.552 547.815 266.626 547.798 266.652C547.792 266.66 547.76 266.675 547.726 266.683C547.667 266.698 547.226 266.918 547.204 266.943C547.192 266.96 547.077 267.036 547.043 267.051C546.922 267.104 546.271 267.761 546.271 267.828C546.271 267.839 546.25 267.864 546.226 267.887C546.152 267.953 546.037 268.132 545.889 268.411C545.84 268.502 545.791 268.593 545.783 268.612C545.615 268.918 545.316 269.881 545.214 270.441C545.191 270.568 545.165 270.716 545.157 270.769C545.15 270.821 545.136 270.891 545.125 270.927C545.104 270.992 545.03 271.495 545.01 271.698C545.004 271.761 544.989 271.909 544.979 272.025C544.909 272.712 544.89 272.953 544.86 273.515C544.843 273.857 544.822 274.229 544.817 274.338C544.758 275.424 544.741 282.093 544.794 282.936C544.796 282.989 544.807 283.13 544.813 283.253C544.822 283.375 544.832 283.626 544.839 283.812C544.845 283.998 544.868 284.317 544.89 284.52C544.913 284.723 544.936 284.989 544.945 285.111C544.962 285.384 545.032 285.921 545.074 286.102C545.091 286.176 545.119 286.328 545.136 286.44C545.221 286.989 545.352 287.532 545.452 287.762C545.469 287.796 545.492 287.86 545.505 287.9C545.585 288.158 545.647 288.318 545.742 288.529C545.776 288.603 545.804 288.667 545.804 288.673C545.804 288.694 546.046 289.093 546.063 289.1C546.071 289.104 546.08 289.117 546.08 289.127C546.08 289.148 546.224 289.357 546.26 289.389C546.273 289.4 546.298 289.433 546.313 289.463C546.341 289.516 546.385 289.566 546.532 289.719C546.574 289.765 546.61 289.811 546.61 289.822C546.61 289.835 546.617 289.843 546.627 289.843C546.636 289.843 546.687 289.883 546.74 289.934C546.977 290.152 547.145 290.268 547.431 290.414C547.506 290.449 547.569 290.487 547.576 290.498C547.582 290.506 547.612 290.521 547.644 290.528C547.677 290.536 547.735 290.555 547.773 290.572C547.809 290.589 547.873 290.618 547.911 290.633C547.981 290.665 548.159 290.716 548.325 290.751C548.373 290.762 548.433 290.781 548.454 290.792C548.475 290.804 548.577 290.823 548.679 290.836C548.783 290.849 548.917 290.87 548.974 290.885C549.12 290.918 550.625 290.916 550.801 290.882C550.871 290.87 551.019 290.849 551.13 290.836C551.24 290.823 551.395 290.8 551.475 290.783C551.554 290.766 551.681 290.737 551.762 290.72C551.84 290.703 551.946 290.682 551.999 290.675C552.053 290.667 552.112 290.652 552.131 290.642C552.152 290.631 552.21 290.616 552.258 290.606C552.367 290.582 552.642 290.511 552.732 290.479C552.768 290.468 552.867 290.437 552.954 290.411C553.041 290.386 553.143 290.354 553.177 290.34C553.273 290.302 553.377 290.266 553.495 290.23C553.555 290.213 553.61 290.19 553.623 290.179C553.633 290.168 553.654 290.16 553.671 290.16C553.688 290.16 553.731 290.145 553.767 290.128C553.805 290.114 553.941 290.057 554.068 290.006C554.198 289.953 554.378 289.875 554.471 289.833C554.881 289.642 554.97 289.6 555.161 289.507C555.494 289.343 555.793 289.174 556.173 288.937C556.317 288.848 556.466 288.757 556.506 288.734C556.81 288.559 558.015 287.693 558.121 287.574C558.133 287.562 558.242 287.465 558.365 287.361C558.488 287.256 558.649 287.114 558.725 287.042C558.802 286.972 558.919 286.863 558.989 286.799L559.112 286.685L559.099 286.584C559.088 286.482 559.048 286.358 558.804 285.682C558.738 285.502 558.636 285.217 558.577 285.048C558.515 284.879 558.447 284.702 558.426 284.651C558.403 284.602 558.316 284.408 558.229 284.218C558.144 284.03 558.046 283.819 558.015 283.749C557.898 283.489 557.872 283.443 557.849 283.443C557.836 283.443 557.781 283.489 557.728 283.548C557.155 284.171 556.521 284.731 556.01 285.065C555.587 285.34 555.549 285.363 555.498 285.386C555.471 285.399 555.409 285.433 555.362 285.46C555.244 285.53 555.065 285.618 555.044 285.618C555.034 285.618 555.01 285.631 554.993 285.646C554.974 285.661 554.906 285.694 554.843 285.722C554.779 285.749 554.698 285.783 554.662 285.798C554.628 285.813 554.541 285.847 554.471 285.872C554.401 285.897 554.316 285.931 554.28 285.946C554.181 285.986 553.924 286.062 553.884 286.062C553.862 286.062 553.809 286.075 553.767 286.092C553.61 286.151 553.196 286.208 552.848 286.22C552.335 286.239 551.855 286.195 551.586 286.102C551.552 286.09 551.484 286.07 551.437 286.06C551.391 286.049 551.325 286.026 551.289 286.009C551.121 285.931 551.03 285.893 551.009 285.893C550.996 285.893 550.975 285.878 550.96 285.861C550.945 285.844 550.915 285.83 550.894 285.83C550.871 285.83 550.854 285.819 550.854 285.809C550.854 285.796 550.828 285.775 550.796 285.762C550.622 285.686 550.226 285.333 550.067 285.111C550.028 285.059 549.992 285.012 549.986 285.006C549.98 285 549.963 284.976 549.948 284.953C549.935 284.93 549.865 284.816 549.795 284.7C549.466 284.155 549.275 283.629 549.091 282.756C549.069 282.651 549.042 282.524 549.029 282.471C548.999 282.338 548.974 282.15 548.934 281.816C548.917 281.66 548.889 281.413 548.872 281.267C548.836 280.969 548.787 280.177 548.802 280.154C548.808 280.143 548.802 280.042 548.791 279.926C548.724 279.218 548.781 276.521 548.878 275.722C548.889 275.64 548.914 275.437 548.934 275.268C549.001 274.7 549.035 274.501 549.127 274.159C549.156 274.043 549.186 273.924 549.192 273.895C549.235 273.686 549.409 273.134 549.472 273.012C549.483 272.993 549.536 272.885 549.589 272.775C549.644 272.665 549.721 272.522 549.761 272.458C549.801 272.395 549.842 272.327 549.85 272.311C549.897 272.207 550.086 271.975 550.281 271.782C550.478 271.586 550.752 271.379 550.917 271.301C550.947 271.286 550.985 271.267 551.002 271.257C551.096 271.204 551.172 271.17 551.197 271.17C551.214 271.17 551.263 271.151 551.31 271.128C551.357 271.104 551.41 271.085 551.429 271.085C551.448 271.085 551.497 271.073 551.535 271.056C551.575 271.039 551.66 271.02 551.724 271.011C551.787 271.003 551.898 270.984 551.968 270.967C552.055 270.948 552.239 270.938 552.562 270.938C552.959 270.938 553.071 270.946 553.315 270.988C553.621 271.041 553.775 271.075 553.877 271.111C553.913 271.121 553.99 271.145 554.047 271.159C554.106 271.174 554.206 271.208 554.27 271.233C554.333 271.259 554.42 271.292 554.461 271.307C554.692 271.394 555.148 271.614 555.399 271.759C556.215 272.237 556.71 272.625 557.44 273.365C557.694 273.622 557.762 273.679 557.783 273.658C557.796 273.643 557.853 273.525 557.909 273.398C557.964 273.27 558.042 273.094 558.083 273.008C558.123 272.921 558.163 272.83 558.174 272.807C558.184 272.784 558.227 272.689 558.269 272.596C558.312 272.503 558.39 272.308 558.443 272.163C558.494 272.017 558.594 271.747 558.662 271.561C558.865 271.007 558.974 270.684 559.01 270.534C559.02 270.483 558.997 270.454 558.785 270.259C558.184 269.706 557.809 269.393 557.368 269.077C557.028 268.832 557.024 268.832 556.784 268.671C556.483 268.468 556.279 268.339 555.935 268.134C555.912 268.12 555.874 268.099 555.85 268.088C555.827 268.075 555.77 268.042 555.723 268.014C555.594 267.934 555.56 267.917 555.15 267.708C554.94 267.6 554.711 267.488 554.641 267.458C554.571 267.429 554.456 267.38 554.386 267.349C554.316 267.317 554.206 267.268 554.142 267.243C554.079 267.216 553.998 267.182 553.966 267.165C553.932 267.148 553.894 267.135 553.881 267.135C553.867 267.135 553.82 267.116 553.775 267.093C553.733 267.07 553.686 267.051 553.671 267.051C553.646 267.051 553.455 266.983 553.379 266.947C553.362 266.939 553.262 266.905 553.156 266.873C553.052 266.842 552.933 266.802 552.895 266.785C552.857 266.768 552.806 266.755 552.782 266.755C552.759 266.755 552.719 266.745 552.695 266.732C552.67 266.717 552.596 266.696 552.532 266.679C552.417 266.654 552.347 266.635 552.116 266.576C551.949 266.531 551.59 266.459 551.537 266.459C551.509 266.459 551.429 266.445 551.357 266.428C551.047 266.356 550.461 266.311 549.846 266.314C549.519 266.316 549.199 266.324 549.135 266.335Z" fill="#3555AE"/>
<path d="M572.156 266.335C572.093 266.343 571.933 266.364 571.804 266.381C571.675 266.398 571.551 266.421 571.528 266.434C571.507 266.445 571.441 266.466 571.382 266.476C571.218 266.51 571.044 266.556 571 266.58C570.977 266.592 570.923 266.616 570.883 266.635C570.654 266.734 570.584 266.77 570.448 266.846C570.368 266.894 570.289 266.941 570.276 266.954C570.264 266.966 570.213 267 570.166 267.03C570.117 267.059 570.077 267.095 570.077 267.108C570.077 267.123 570.068 267.135 570.058 267.135C570.015 267.135 569.61 267.566 569.61 267.613C569.61 267.619 569.566 267.687 569.51 267.765C569.453 267.841 569.398 267.925 569.385 267.949C569.372 267.972 569.328 268.052 569.288 268.128C569.005 268.646 568.791 269.603 568.776 270.388C568.772 270.722 568.766 270.707 568.952 270.811C568.993 270.834 569.095 270.902 569.175 270.959C569.258 271.018 569.432 271.138 569.566 271.229C569.865 271.432 569.998 271.523 570.215 271.673C570.469 271.85 570.696 272.004 570.979 272.194C571.257 272.38 571.39 272.475 571.609 272.638C571.687 272.695 571.806 272.784 571.874 272.832C571.942 272.881 572.095 272.993 572.213 273.079C572.332 273.168 572.438 273.24 572.449 273.24C572.472 273.24 572.485 273.21 572.506 273.092C572.521 273.014 572.614 272.689 572.644 272.617C572.653 272.594 572.682 272.518 572.71 272.448C572.842 272.097 573.086 271.685 573.228 271.575C573.257 271.552 573.281 271.525 573.281 271.516C573.283 271.485 573.69 271.191 573.731 271.191C573.743 271.191 573.771 271.178 573.788 271.164C573.858 271.107 574.11 271.014 574.363 270.954C574.588 270.902 575.186 270.878 575.436 270.914C575.782 270.963 576.035 271.022 576.294 271.117C576.506 271.195 576.909 271.411 577.068 271.533C577.393 271.782 577.613 271.989 577.851 272.268C578.048 272.499 578.11 272.598 578.303 272.987C578.642 273.673 578.776 274.277 578.778 275.135C578.778 275.498 578.776 275.517 578.71 275.849C578.634 276.221 578.456 276.789 578.328 277.059C578.218 277.296 577.993 277.674 577.739 278.052C577.626 278.219 577.526 278.371 577.514 278.39C577.446 278.502 576.716 279.493 576.644 279.569C576.633 279.581 576.542 279.704 576.442 279.841C576.245 280.112 576.137 280.249 575.882 280.551C575.585 280.904 575.349 281.187 575.125 281.457C575.004 281.603 574.838 281.793 574.755 281.88C574.675 281.966 574.393 282.27 574.132 282.556C573.453 283.295 571.995 284.727 571.373 285.268C571.307 285.325 571.191 285.428 571.114 285.5C571.038 285.57 570.943 285.656 570.902 285.692C570.794 285.785 570.463 286.081 570.353 286.18C570.3 286.229 570.219 286.301 570.172 286.339C570.126 286.379 570.083 286.415 570.077 286.421C570.071 286.427 569.937 286.539 569.78 286.668C569.623 286.797 569.474 286.926 569.449 286.953C569.398 287.01 569.358 287.087 569.131 287.551C569.039 287.737 568.935 287.938 568.895 287.999C568.857 288.06 568.825 288.115 568.825 288.122C568.825 288.13 568.808 288.162 568.785 288.191C568.764 288.223 568.715 288.305 568.677 288.375C568.532 288.635 568.494 288.7 568.301 289.028C568.193 289.212 568.104 289.368 568.104 289.374C568.104 289.378 568.07 289.431 568.029 289.486C567.989 289.543 567.955 289.594 567.955 289.6C567.955 289.607 567.908 289.674 567.853 289.754C567.796 289.833 567.745 289.907 567.741 289.917C567.737 289.93 567.645 290.067 567.539 290.225L567.346 290.513L569.65 290.525C570.917 290.534 573.703 290.54 575.84 290.54C579.51 290.54 579.729 290.538 579.771 290.502C579.824 290.46 580.289 289.693 580.463 289.366C580.773 288.779 581.082 288.193 581.157 288.048C581.222 287.915 581.386 287.564 581.386 287.551C581.386 287.545 581.413 287.482 581.447 287.41C581.479 287.336 581.541 287.201 581.581 287.108C581.623 287.015 581.698 286.848 581.746 286.738C581.895 286.406 582.003 286.119 581.984 286.1C581.976 286.092 580.435 286.081 578.564 286.079C576.073 286.075 575.161 286.066 575.154 286.049C575.146 286.024 575.235 285.927 575.434 285.745C575.935 285.291 576.056 285.179 576.298 284.957C576.996 284.315 578.182 283.117 578.681 282.556C578.782 282.441 579.056 282.139 579.287 281.892C579.353 281.82 579.557 281.582 579.739 281.362C579.924 281.14 580.13 280.893 580.198 280.811C580.268 280.726 580.378 280.589 580.444 280.504C580.512 280.418 580.571 280.344 580.58 280.338C580.601 280.321 580.773 280.09 580.9 279.904C581.019 279.736 581.492 278.99 581.492 278.973C581.492 278.969 581.53 278.903 581.577 278.827C581.715 278.603 581.823 278.375 582.012 277.908C582.247 277.334 582.326 277.08 582.396 276.689C582.517 276.007 582.544 275.654 582.512 275.232C582.468 274.64 582.411 274.153 582.362 273.927C582.349 273.867 582.33 273.783 582.319 273.736C582.311 273.69 582.288 273.599 582.268 273.536C582.249 273.472 582.218 273.352 582.194 273.272C582.171 273.189 582.137 273.075 582.118 273.018C582.099 272.959 582.075 272.883 582.065 272.849C582.044 272.771 581.923 272.442 581.895 272.384C581.884 272.361 581.855 272.294 581.829 272.237C581.693 271.926 581.339 271.252 581.235 271.102C581.212 271.073 581.195 271.041 581.195 271.035C581.195 271.022 581.123 270.914 580.94 270.654C580.747 270.378 580.166 269.698 579.881 269.417C579.417 268.954 578.795 268.447 578.193 268.041C577.802 267.777 577.575 267.646 577.036 267.376C576.37 267.044 575.833 266.829 575.212 266.649C575.125 266.624 575.025 266.595 574.989 266.582C574.955 266.571 574.902 266.556 574.872 266.552C574.842 266.546 574.728 266.523 574.617 266.499C574.204 266.411 574.11 266.396 573.758 266.354C573.474 266.32 573.279 266.311 572.835 266.314C572.525 266.316 572.22 266.324 572.156 266.335Z" fill="#3555AE"/>
<path d="M536.523 266.709L534.979 266.713L534.989 266.808C534.996 266.859 535.013 266.96 535.025 267.034C535.106 267.492 535.121 267.606 535.163 268.139C535.182 268.371 535.206 268.637 535.216 268.73C535.235 268.893 535.227 270.688 535.208 270.864C535.199 270.938 535.185 271.128 535.14 271.656C535.136 271.732 535.125 271.816 535.119 271.846C535.112 271.875 535.098 271.975 535.087 272.068C535.036 272.539 534.815 273.741 534.707 274.159C534.694 274.205 534.652 274.372 534.61 274.529C534.569 274.685 534.512 274.898 534.482 275.004C534.455 275.107 534.416 275.247 534.4 275.31C534.317 275.619 533.814 277.082 533.71 277.306C533.699 277.33 533.576 277.623 533.438 277.961C533.298 278.297 533.101 278.745 532.999 278.954C532.897 279.163 532.745 279.482 532.658 279.662C532.571 279.841 532.484 280.016 532.464 280.052C532.407 280.16 532.176 280.587 532.106 280.714C531.985 280.935 531.786 281.299 531.745 281.366C531.722 281.404 531.696 281.434 531.684 281.43C531.665 281.423 531.573 281.166 531.327 280.411C531.274 280.249 531.187 280.002 531.132 279.862C531.077 279.723 531.026 279.586 531.015 279.556C530.998 279.501 530.731 278.817 530.699 278.743C530.689 278.719 530.64 278.605 530.591 278.489C530.491 278.257 530.438 278.141 530.273 277.792C530.213 277.663 530.107 277.435 530.039 277.283C529.971 277.131 529.808 276.801 529.679 276.554C529.547 276.305 529.373 275.973 529.29 275.817C529.121 275.49 528.966 275.209 528.847 275.019C528.802 274.945 528.766 274.879 528.766 274.875C528.766 274.869 528.734 274.814 528.694 274.755C528.656 274.693 528.601 274.605 528.573 274.556C528.374 274.203 527.979 273.567 527.684 273.124C527.101 272.245 526.842 271.865 526.67 271.635C526.596 271.535 526.519 271.432 526.5 271.406C526.458 271.347 526.343 271.191 526.263 271.085C526.233 271.045 526.19 270.984 526.167 270.95C526.063 270.8 525.658 270.264 525.478 270.04C525.412 269.957 525.263 269.774 525.147 269.628C525.03 269.482 524.92 269.345 524.9 269.322C524.879 269.298 524.739 269.127 524.589 268.941C524.436 268.755 524.298 268.589 524.285 268.572C524.27 268.555 524.2 268.475 524.13 268.392C524.06 268.312 523.973 268.21 523.937 268.17C523.901 268.13 523.793 268.006 523.695 267.896C523.6 267.786 523.492 267.661 523.453 267.621C523.415 267.581 523.324 267.475 523.25 267.389C523.173 267.302 523.101 267.22 523.088 267.209C523.076 267.197 523.006 267.12 522.936 267.04C522.866 266.958 522.77 266.852 522.724 266.802L522.639 266.713H521.056C519.56 266.713 519.475 266.715 519.486 266.749C519.503 266.799 519.539 266.878 519.639 267.093C519.685 267.192 519.745 267.319 519.77 267.378C519.796 267.435 519.851 267.556 519.891 267.642C519.931 267.729 519.972 267.82 519.982 267.843C519.997 267.885 520.056 268.035 520.088 268.118C520.097 268.141 520.129 268.223 520.16 268.301C520.19 268.382 520.241 268.508 520.271 268.586C520.303 268.667 520.334 268.749 520.343 268.772C520.379 268.863 520.472 269.106 520.521 269.231C520.549 269.305 520.608 269.478 520.653 269.617C520.695 269.757 520.752 269.936 520.778 270.019C520.805 270.099 520.867 270.295 520.916 270.452C520.965 270.608 521.018 270.775 521.032 270.821C521.047 270.868 521.113 271.123 521.179 271.392C521.245 271.658 521.323 271.973 521.353 272.089C521.431 272.395 521.44 272.439 521.499 272.765C521.639 273.54 521.654 273.614 521.68 273.736C521.699 273.825 521.748 274.176 521.784 274.497C521.796 274.6 521.82 274.801 521.837 274.94C521.955 275.902 521.987 276.523 521.987 277.887C521.987 279.199 521.951 279.936 521.849 280.76C521.837 280.847 521.818 281.022 521.805 281.151C521.792 281.278 521.773 281.459 521.765 281.552C521.748 281.708 521.705 281.966 521.597 282.545C521.571 282.672 521.542 282.834 521.529 282.904C521.516 282.974 521.497 283.077 521.487 283.136C521.474 283.193 521.446 283.346 521.425 283.474C521.402 283.601 521.368 283.787 521.351 283.886C521.332 283.986 521.308 284.112 521.298 284.171C521.287 284.228 521.264 284.357 521.245 284.457C521.228 284.556 521.202 284.683 521.192 284.742C521.181 284.799 521.153 284.917 521.128 285.004C521.105 285.088 521.056 285.264 521.02 285.395C520.986 285.523 520.939 285.694 520.916 285.777C520.895 285.857 520.861 285.98 520.844 286.045C520.825 286.113 520.795 286.223 520.776 286.288C520.757 286.356 520.725 286.476 520.704 286.558C520.68 286.639 520.638 286.797 520.608 286.907C520.576 287.017 520.544 287.135 520.534 287.171C520.375 287.771 520.322 287.944 520.216 288.238C520.167 288.371 520.11 288.533 520.088 288.597C520.05 288.707 519.948 288.99 519.823 289.336C519.793 289.423 519.749 289.547 519.728 289.611C519.706 289.674 519.649 289.837 519.6 289.97C519.445 290.401 519.409 290.504 519.416 290.513C519.433 290.528 522.94 290.519 522.957 290.502C522.968 290.492 523.008 290.392 523.046 290.285C523.086 290.175 523.15 290.014 523.192 289.928C523.394 289.497 523.426 289.423 523.462 289.315C523.483 289.252 523.54 289.089 523.589 288.956C523.638 288.823 523.687 288.69 523.695 288.66C523.723 288.576 523.823 288.32 523.863 288.227C523.958 288.018 524.048 287.746 524.151 287.351C524.209 287.131 524.311 286.812 524.436 286.463C524.47 286.364 524.519 286.208 524.544 286.115C524.569 286.022 524.608 285.874 524.631 285.787C524.654 285.701 524.695 285.553 524.722 285.46C524.75 285.367 524.777 285.272 524.784 285.249C524.79 285.226 524.82 285.126 524.85 285.027C524.913 284.826 524.953 284.636 525.055 284.066C525.068 283.983 525.117 283.764 525.164 283.574C525.208 283.384 525.259 283.151 525.276 283.056C525.293 282.961 525.321 282.803 525.34 282.703C525.495 281.865 525.533 281.63 525.571 281.235C525.605 280.902 525.626 280.722 525.669 280.39C525.69 280.213 525.722 279.731 525.753 279.06C525.777 278.559 525.779 277.232 525.756 276.852C525.745 276.696 525.741 276.563 525.747 276.559C525.777 276.525 525.929 276.782 526.099 277.158C526.152 277.275 526.244 277.473 526.305 277.602C526.638 278.305 526.782 278.643 527.158 279.598C527.357 280.103 527.839 281.508 527.937 281.858C527.96 281.945 528.005 282.101 528.032 282.207C528.085 282.395 528.128 282.551 528.268 283.094C528.308 283.244 528.359 283.472 528.384 283.601C528.41 283.728 528.442 283.886 528.459 283.95C528.473 284.013 528.497 284.127 528.512 284.203C528.524 284.279 528.56 284.436 528.59 284.552C528.618 284.668 528.645 284.786 528.65 284.816C528.654 284.845 528.677 285.006 528.703 285.175C528.726 285.344 528.751 285.515 528.758 285.555C528.762 285.595 528.781 285.724 528.8 285.84C528.874 286.335 528.896 286.533 528.981 287.604C528.993 287.76 529.008 287.91 529.012 287.936L529.021 287.984H529.865C530.566 287.984 530.716 287.98 530.752 287.955C530.788 287.929 530.846 287.862 531 287.657C531.009 287.646 531.066 287.572 531.128 287.496C531.187 287.418 531.291 287.287 531.355 287.203C531.556 286.941 531.614 286.867 531.853 286.575C531.983 286.419 532.108 286.261 532.136 286.225C532.161 286.187 532.206 286.123 532.235 286.083C532.263 286.043 532.339 285.937 532.405 285.851C532.471 285.764 532.547 285.654 532.579 285.61C532.609 285.564 532.651 285.506 532.672 285.483C532.696 285.46 532.713 285.435 532.713 285.426C532.713 285.418 532.725 285.397 532.74 285.382C532.832 285.289 533.269 284.683 533.606 284.184C533.822 283.863 534.03 283.559 534.066 283.506C534.215 283.299 534.359 283.077 534.567 282.733C534.83 282.302 534.904 282.182 534.932 282.152C534.947 282.135 534.962 282.114 534.962 282.108C534.962 282.101 535.028 281.992 535.106 281.865C535.242 281.649 535.331 281.495 535.477 281.225C535.511 281.161 535.556 281.079 535.577 281.045C535.598 281.009 535.649 280.921 535.69 280.844C535.73 280.768 535.817 280.612 535.883 280.496C535.948 280.38 536.118 280.052 536.258 279.767C536.833 278.608 536.848 278.572 537.181 277.754C537.279 277.513 537.385 277.256 537.417 277.184C537.448 277.112 537.531 276.882 537.601 276.673C537.777 276.153 537.799 276.157 537.845 276.736C537.883 277.182 537.915 278.354 537.9 278.764C537.879 279.387 537.828 280.274 537.807 280.422C537.794 280.498 537.76 280.773 537.731 281.035C537.671 281.554 537.631 281.801 537.508 282.439C537.463 282.672 537.415 282.927 537.4 283.01C537.385 283.09 537.34 283.28 537.302 283.432C537.262 283.582 537.166 283.95 537.092 284.245C537.016 284.541 536.865 285.05 536.757 285.376C536.646 285.701 536.536 286.039 536.511 286.125C536.472 286.256 536.349 286.582 536.224 286.875C536.209 286.909 536.129 287.114 536.044 287.329C535.798 287.957 535.779 288.003 535.641 288.291C535.327 288.948 535.284 289.04 535.206 289.231C535.159 289.34 535.087 289.492 535.045 289.569C535.002 289.645 534.898 289.835 534.813 289.991C534.728 290.147 534.631 290.327 534.597 290.39C534.559 290.458 534.542 290.509 534.554 290.517C534.567 290.523 535.371 290.528 536.345 290.523L538.115 290.519L538.261 290.249C538.34 290.101 538.435 289.928 538.469 289.864C538.503 289.801 538.573 289.68 538.624 289.6C538.707 289.467 538.891 289.093 539.142 288.555C539.193 288.445 539.292 288.244 539.36 288.111C539.43 287.978 539.577 287.646 539.687 287.374C539.797 287.103 539.939 286.761 540.003 286.613C540.067 286.468 540.23 286.02 540.364 285.621C540.5 285.219 540.616 284.877 540.627 284.856C540.637 284.837 540.669 284.731 540.699 284.624C540.729 284.514 540.767 284.372 540.784 284.309C540.801 284.245 540.85 284.06 540.892 283.897C540.934 283.734 540.996 283.506 541.03 283.39C541.064 283.274 541.119 283.022 541.157 282.83C541.227 282.46 541.229 282.448 541.327 281.949C541.361 281.774 541.399 281.542 541.412 281.432C541.422 281.324 541.442 281.168 541.452 281.087C541.463 281.005 541.484 280.844 541.497 280.728C541.509 280.612 541.535 280.411 541.55 280.285C541.567 280.156 541.59 279.801 541.603 279.493C541.616 279.184 541.628 278.857 541.633 278.764C541.65 278.411 541.603 277.074 541.56 276.673C541.465 275.779 541.45 275.65 541.422 275.469C541.406 275.363 541.378 275.198 541.359 275.099C541.31 274.843 541.287 274.714 541.263 274.575C541.253 274.51 541.234 274.412 541.223 274.36C541.212 274.307 541.191 274.203 541.178 274.127C541.155 274.005 541.1 273.779 540.934 273.145C540.788 272.577 540.724 272.37 540.483 271.666C540.285 271.094 540.273 271.06 540.245 270.99C540.236 270.967 540.215 270.914 540.202 270.874C540.171 270.785 540.137 270.707 540.079 270.578C540.056 270.526 539.954 270.283 539.852 270.04C539.606 269.446 539.63 269.499 539.239 268.72C538.876 268.001 538.792 267.839 538.673 267.636C538.564 267.452 538.569 267.458 538.412 267.188C538.2 266.823 538.144 266.734 538.104 266.717C538.085 266.709 537.374 266.704 536.523 266.709Z" fill="#3555AE"/>
<path d="M583.989 266.854C584.089 267.038 584.093 267.047 584.345 267.467C584.464 267.663 584.606 267.921 584.664 268.044C584.772 268.268 585.207 269.134 585.281 269.269C585.304 269.309 585.351 269.415 585.383 269.501C585.417 269.588 585.455 269.687 585.47 269.723C585.485 269.757 585.531 269.877 585.576 269.987C585.618 270.097 585.676 270.234 585.703 270.293C585.803 270.513 585.843 270.604 585.877 270.69C585.896 270.739 585.92 270.79 585.928 270.8C585.949 270.83 586.011 271.005 586.011 271.041C586.011 271.058 586.024 271.088 586.039 271.104C586.056 271.123 586.094 271.223 586.128 271.328C586.244 271.698 586.467 272.338 586.518 272.448C586.529 272.471 586.544 272.513 586.55 272.543C586.556 272.572 586.575 272.653 586.594 272.722C586.614 272.792 586.637 272.883 586.648 272.923C586.658 272.963 586.681 273.054 586.701 273.124C586.739 273.261 586.762 273.352 586.794 273.483C586.805 273.529 586.83 273.624 586.849 273.694C586.887 273.834 586.913 273.95 586.942 274.127C586.968 274.273 587.038 274.664 587.104 275.014C587.123 275.114 587.146 275.24 587.157 275.3C587.178 275.414 587.208 275.65 587.242 275.954C587.284 276.371 587.307 276.58 587.337 276.842C587.363 277.08 587.399 278.071 587.401 278.574C587.401 278.667 587.388 279.009 587.373 279.334C587.343 279.987 587.314 280.325 587.21 281.14C587.191 281.286 587.167 281.48 587.157 281.573C587.146 281.666 587.133 281.761 587.127 281.784C587.112 281.854 587.055 282.146 586.976 282.545C586.83 283.291 586.811 283.377 586.637 284.002C586.578 284.216 586.518 284.429 586.465 284.63C586.435 284.744 586.34 285.044 586.253 285.295C586.166 285.549 586.045 285.897 585.988 286.073C585.877 286.394 585.296 287.815 585.226 287.931C585.205 287.965 585.162 288.056 585.13 288.132C585.099 288.208 585.041 288.335 585.005 288.417C584.967 288.498 584.923 288.599 584.908 288.639C584.891 288.679 584.836 288.789 584.787 288.882C584.736 288.975 584.551 289.334 584.375 289.683C584.201 290.029 584.034 290.35 584.004 290.397C583.974 290.443 583.955 290.494 583.961 290.511C583.972 290.536 584.248 290.54 585.788 290.54C587.021 290.54 587.619 290.534 587.647 290.517C587.672 290.504 587.812 290.247 587.995 289.875C588.165 289.533 588.302 289.247 588.302 289.241C588.302 289.235 588.334 289.161 588.373 289.078C588.411 288.994 588.455 288.89 588.472 288.85C588.487 288.81 588.508 288.766 588.517 288.755C588.525 288.743 588.551 288.686 588.574 288.629C588.597 288.569 588.682 288.371 588.765 288.185C588.846 287.999 588.981 287.665 589.066 287.446C589.202 287.084 589.247 286.968 589.3 286.833C589.467 286.406 589.514 286.273 589.767 285.471C589.815 285.314 589.879 285.114 589.909 285.027C589.964 284.862 589.983 284.788 590.193 283.971C590.373 283.269 590.392 283.193 590.456 282.851C590.488 282.682 590.535 282.431 590.562 282.291C590.66 281.793 590.694 281.582 590.743 281.161C590.757 281.052 590.781 280.861 590.796 280.739C590.853 280.295 590.87 280.105 590.906 279.535C590.953 278.798 590.95 277.275 590.902 276.747C590.855 276.233 590.829 275.952 590.817 275.775C590.808 275.688 590.789 275.526 590.772 275.416C590.755 275.306 590.732 275.147 590.721 275.067C590.709 274.985 590.696 274.905 590.689 274.888C590.681 274.858 590.664 274.759 590.615 274.433C590.577 274.182 590.535 273.946 590.499 273.8C590.458 273.631 590.384 273.316 590.308 273.003C590.259 272.794 590.184 272.496 590.148 272.363C590.131 272.3 590.078 272.131 589.989 271.856C589.962 271.774 589.904 271.594 589.86 271.455C589.722 271.014 589.665 270.84 589.599 270.682C589.565 270.595 589.433 270.268 589.308 269.955C589.064 269.341 589.056 269.317 588.848 268.889C588.774 268.732 588.661 268.498 588.6 268.371C588.46 268.077 588.258 267.676 588.203 267.579C588.179 267.539 588.109 267.414 588.048 267.304C587.986 267.194 587.885 267.015 587.821 266.907L587.706 266.713H585.809H583.913L583.989 266.854Z" fill="#3555AE"/>
<path d="M562.706 278.815C562.697 278.825 562.683 279.123 562.672 279.476C562.651 280.103 562.644 280.207 562.577 280.739C562.557 280.885 562.534 281.083 562.523 281.182C562.492 281.472 562.46 281.719 562.447 281.753C562.441 281.77 562.426 281.831 562.415 281.89C562.405 281.947 562.388 282.038 562.375 282.091C562.239 282.72 562.19 282.991 562.207 283.01C562.22 283.022 563.379 283.035 565.507 283.041C568.498 283.052 568.789 283.05 568.817 283.018C568.834 282.999 568.861 282.915 568.88 282.828C568.897 282.741 568.95 282.49 568.997 282.27C569.105 281.759 569.133 281.599 569.175 281.235C569.241 280.661 569.254 280.557 569.273 280.433C569.285 280.363 569.302 280.067 569.313 279.778C569.324 279.486 569.339 279.169 569.345 279.07C569.353 278.939 569.349 278.88 569.33 278.855C569.305 278.825 569.001 278.819 566.012 278.806C563.729 278.796 562.714 278.798 562.706 278.815Z" fill="#3555AE"/>
<mask id="mask2_64_252" style="mask-type:alpha" maskUnits="userSpaceOnUse" x="465" y="250" width="134" height="69">
<rect x="465.618" y="250.553" width="133.163" height="67.5955" rx="33.7978" fill="#D9D9D9"/>
<mask id="mask3_64_252" style="mask-type:alpha" maskUnits="userSpaceOnUse" x="465" y="250" width="134" height="69">
<rect x="465.618" y="250.553" width="133.163" height="67.5955" rx="33.7978" fill="white"/>
</mask>
<g mask="url(#mask3_64_252)">
<path d="M471.026 287.393H462.914V307.333L486.235 324.232L596.077 329.978L601.147 287.393H534.227C502.052 313.079 478.686 298.095 471.026 287.393Z" fill="#5C98D0"/>
</g>
</mask>
<g mask="url(#mask2_64_252)">
<path d="M495.698 305.644C488.127 312.403 473.391 308.46 466.97 305.644L453.789 275.902L483.531 247.511L553.83 249.539C538.17 251.229 505.364 255.015 499.416 256.637C481.03 262.315 485.22 277.028 489.614 283.675C494.797 288.181 503.268 298.884 495.698 305.644Z" fill="#2D74B6" fill-opacity="0.4"/>
<path d="M507.527 266.776C514.557 266.776 517.216 270.381 517.666 272.184H498.064C498.289 270.381 500.497 266.776 507.527 266.776Z" fill="#2D74B6" fill-opacity="0.4"/>
</g>
<path d="M576.137 352.285V345.187H586.614V352.285H596.416V331.668H586.614V337.076H584.248V314.093H603.175V300.236H570.053V314.093H578.841V337.076H576.137V331.668H567.688V352.285H576.137Z" fill="#333333"/>
<path d="M833 269.818L560.252 293.138L554.844 307.671L833 269.818Z" fill="#ECECEC"/>
<path d="M833 269.818L560.252 293.138L554.844 307.671L833 269.818Z" fill="#D9D9D9"/>
<mask id="mask4_64_252" style="mask-type:alpha" maskUnits="userSpaceOnUse" x="554" y="269" width="279" height="39">
<path d="M833 269.818L560.252 293.138L554.844 307.671L833 269.818Z" fill="white"/>
<path d="M833 269.818L560.252 293.138L554.844 307.671L833 269.818Z" fill="white"/>
</mask>
<g mask="url(#mask4_64_252)">
<path d="M839.083 269.818L551.464 301.25V314.093L839.083 269.818Z" fill="#ECECEC"/>
<path d="M839.083 269.818L551.464 301.25V314.093L839.083 269.818Z" fill="#1A2D67"/>
</g>
<circle cx="621.764" cy="318.825" r="16.2229" fill="#D9D9D9"/>
<circle cx="613.99" cy="318.487" r="15.3292" fill="#333333" stroke="#5C98D0" stroke-width="7"/>
<circle cx="441.284" cy="318.149" r="16.2229" fill="#D9D9D9"/>
<circle cx="432.835" cy="318.487" r="15.3292" fill="#333333" stroke="#5C98D0" stroke-width="7"/>
<rect x="480.489" y="272.184" width="24.3344" height="8.11146" fill="#1A2D67"/>
<path d="M506.852 272.184H517.667V274.295C517.667 277.609 514.981 280.295 511.667 280.295H506.852V272.184Z" fill="#1A2D67"/>
<path d="M478.461 272.184H472.378V274.295C472.378 277.609 475.064 280.295 478.378 280.295H478.461V272.184Z" fill="#1A2D67"/>
<rect x="544.705" y="272.184" width="2.02787" height="8.11146" rx="1.01393" fill="#14224F"/>
<rect x="548.761" y="272.184" width="2.02787" height="8.11146" rx="1.01393" fill="#14224F"/>
<rect x="552.816" y="272.184" width="2.02787" height="8.11146" rx="1.01393" fill="#14224F"/>
<rect x="556.872" y="272.184" width="2.02787" height="8.11146" rx="1.01393" fill="#14224F"/>
<rect x="560.928" y="272.184" width="2.02787" height="8.11146" rx="1.01393" fill="#14224F"/>
<rect x="564.984" y="272.184" width="2.02787" height="8.11146" rx="1.01393" fill="#14224F"/>
<rect x="569.04" y="272.184" width="2.02787" height="8.11146" rx="1.01393" fill="#14224F"/>
<rect x="573.095" y="272.184" width="2.02787" height="8.11146" rx="1.01393" fill="#14224F"/>
<rect x="577.151" y="272.184" width="2.02787" height="8.11146" rx="1.01393" fill="#14224F"/>
<rect x="581.207" y="272.184" width="2.02787" height="8.11146" rx="1.01393" fill="#14224F"/>
<rect x="585.262" y="272.184" width="2.02787" height="8.11146" rx="1.01393" fill="#14224F"/>
<rect x="589.318" y="272.184" width="2.02787" height="8.11146" rx="1.01393" fill="#14224F"/>
<path d="M606 352.187L305.473 421.187H235L578.217 352.187H606Z" fill="#5C98D0"/>
<mask id="mask5_64_252" style="mask-type:alpha" maskUnits="userSpaceOnUse" x="235" y="351" width="371" height="70">
<path d="M605.541 351.947L305.755 420.894H235.456L577.827 351.947H605.541Z" fill="#5C98D0"/>
</mask>
<g mask="url(#mask5_64_252)">
<rect x="307.445" y="399.939" width="102.069" height="4.73169" fill="#ECECEC"/>
<rect x="391.263" y="381.013" width="102.069" height="3.37978" fill="#ECECEC"/>
<rect x="450.071" y="368.169" width="102.069" height="2.70382" fill="#ECECEC"/>
<rect x="478.461" y="362.762" width="102.069" height="2.02787" fill="#ECECEC"/>
<rect x="496.712" y="358.706" width="102.069" height="2.02787" fill="#ECECEC"/>
<rect x="509.555" y="355.326" width="102.069" height="1.35191" fill="#ECECEC"/>
<rect x="514.287" y="353.298" width="102.069" height="0.675955" fill="#ECECEC"/>
</g>
<path d="M245.421 29.3527C240.017 23.949 240.017 15.1879 245.421 9.78424C250.825 4.38055 259.586 4.38055 264.989 9.78424L322.805 67.6002L303.237 87.1687L245.421 29.3527Z" fill="#E25E63"/>
<path d="M331.789 86.6563L342.759 97.6265L346.614 101.481L336.533 111.562L321.708 96.7371C318.15 100.295 314.296 98.2195 312.814 96.7371L303.029 86.9528L322.598 67.3843C324.278 69.2621 328.587 73.8479 332.382 77.1686C336.177 80.4893 333.568 84.8774 331.789 86.6563Z" fill="#333333"/>
<mask id="mask6_64_252" style="mask-type:alpha" maskUnits="userSpaceOnUse" x="241" y="5" width="106" height="107">
<path d="M245.421 29.3527C240.017 23.949 240.017 15.1879 245.421 9.78424C250.825 4.38055 259.586 4.38055 264.989 9.78424L322.805 67.6002L303.237 87.1687L245.421 29.3527Z" fill="#270405"/>
<path d="M331.789 86.6563L342.759 97.6265L346.614 101.481L336.533 111.562L321.708 96.7371C318.15 100.295 314.296 98.2195 312.814 96.7371L303.029 86.9528L322.598 67.3843C324.278 69.2621 328.587 73.8479 332.382 77.1686C336.177 80.4893 333.568 84.8774 331.789 86.6563Z" fill="#333333"/>
</mask>
<g mask="url(#mask6_64_252)">
<path fill-rule="evenodd" clip-rule="evenodd" d="M235.187 19.8475C229.783 25.2512 229.783 34.0123 235.187 39.416L293.003 97.232L297.609 92.6253L307.307 102.323C308.789 103.805 312.644 105.881 316.202 102.323L331.026 117.148L341.107 107.067L337.253 103.212L326.282 92.2422C328.061 90.4633 330.67 86.0752 326.875 82.7545C323.08 79.4337 318.771 74.848 317.091 72.9702L312.484 77.5769L254.755 19.8475C249.351 14.4438 240.59 14.4438 235.187 19.8475Z" fill="black" fill-opacity="0.12"/>
</g>
<path d="M239.328 92.7909L227.062 102.289L222.752 105.627L214.024 94.3549L230.6 81.5189C227.519 77.5406 230.065 73.9788 231.722 72.6952L242.663 64.2235L259.606 86.1044C257.531 87.5342 252.439 91.2302 248.666 94.5761C244.893 97.9219 240.869 94.78 239.328 92.7909Z" fill="#333333"/>
<path d="M307.07 14.342C313.113 9.66316 321.804 10.7684 326.482 16.8107C331.161 22.8529 330.056 31.544 324.014 36.2228L259.366 86.2829L242.422 64.4021L307.07 14.342Z" fill="#E25E63"/>
<mask id="mask7_64_252" style="mask-type:alpha" maskUnits="userSpaceOnUse" x="214" y="11" width="116" height="95">
<path fill-rule="evenodd" clip-rule="evenodd" d="M326.483 16.8107C321.804 10.7685 313.113 9.66321 307.071 14.342L242.423 64.4021L242.427 64.4066L231.722 72.6953C230.065 73.9789 227.52 77.5406 230.6 81.519L214.024 94.3549L222.752 105.627L227.062 102.29L239.329 92.7909C240.869 94.7801 244.893 97.922 248.666 94.5761C252.297 91.3559 257.151 87.8112 259.36 86.2748L259.366 86.283L259.521 86.1633C259.55 86.1433 259.578 86.1236 259.606 86.1044L259.603 86.0999L324.014 36.2228C330.057 31.5441 331.162 22.8529 326.483 16.8107Z" fill="#E25E63"/>
</mask>
<g mask="url(#mask7_64_252)">
<path fill-rule="evenodd" clip-rule="evenodd" d="M315.332 2.5543C310.654 -3.48793 301.962 -4.5932 295.92 0.0855973L231.272 50.1457L248.216 72.0266L312.864 21.9664C318.906 17.2876 320.011 8.59653 315.332 2.5543ZM217.133 90.8981L229.4 81.3995C230.94 83.3887 234.964 86.5305 238.737 83.1847C242.51 79.8389 247.602 76.1428 249.677 74.713L232.734 52.8321L221.793 61.3039C220.136 62.5874 217.591 66.1492 220.671 70.1276L204.095 82.9635L212.823 94.2354L217.133 90.8981Z" fill="black" fill-opacity="0.1"/>
</g>
<path d="M191.62 91.0038L207.199 118.576L219.49 113.243L230.865 90.132C231.921 89.5614 233.633 87.8539 232.027 85.5886C224.51 75.9255 201.957 85.1724 191.62 91.0038Z" fill="#3555AE"/>
<mask id="mask8_64_252" style="mask-type:alpha" maskUnits="userSpaceOnUse" x="191" y="81" width="42" height="38">
<path d="M191.62 91.0039L207.199 118.576L219.49 113.244L230.865 90.132C231.921 89.5614 233.633 87.8539 232.027 85.5887C224.51 75.9255 201.957 85.1725 191.62 91.0039Z" fill="#3555AE"/>
</mask>
<g mask="url(#mask8_64_252)">
<path d="M188.142 84.7974L203.721 112.37L216.012 107.037L227.387 83.9255C228.443 83.355 230.155 81.6474 228.549 79.3822C221.032 69.719 198.479 78.966 188.142 84.7974Z" fill="black" fill-opacity="0.1"/>
</g>
<path d="M366.421 114.892L370.217 131.835L339.505 135.006L333.918 112.577C331.183 110.396 326.194 105.51 328.11 103.415C330.027 101.32 333.735 104.712 335.349 106.67C335.7 104.425 336.558 99.0207 337.183 95.3594C340.355 89.4103 344.335 94.366 345.928 97.5875L366.421 114.892Z" fill="#3555AE"/>
<path d="M212.259 120.916L192.572 89.3057C151.753 104.924 76.0772 144.399 99.9276 177.35C123.778 210.302 184.753 153.458 212.259 120.916Z" fill="#54C16C"/>
<mask id="mask9_64_252" style="mask-type:alpha" maskUnits="userSpaceOnUse" x="95" y="89" width="118" height="99">
<path d="M212.259 120.916L192.572 89.3057C151.753 104.924 76.0772 144.399 99.9276 177.35C123.778 210.302 184.753 153.458 212.259 120.916Z" fill="#54C16C"/>
</mask>
<g mask="url(#mask9_64_252)">
<path d="M208.445 110.126L188.758 78.5152C147.939 94.1337 72.2632 133.609 96.1136 166.56C119.964 199.511 180.939 142.667 208.445 110.126Z" fill="black" fill-opacity="0.05"/>
<rect x="134.068" y="38.5759" width="191.202" height="12.5791" transform="rotate(57.7389 134.068 38.5759)" fill="#D9D9D9"/>
</g>
<mask id="mask10_64_252" style="mask-type:alpha" maskUnits="userSpaceOnUse" x="327" y="92" width="44" height="44">
<path d="M366.421 114.892L370.217 131.835L339.505 135.006L333.918 112.577C331.183 110.396 326.194 105.51 328.11 103.415C330.027 101.32 333.735 104.712 335.349 106.67C335.7 104.425 336.558 99.0207 337.183 95.3594C340.355 89.4103 344.335 94.366 345.928 97.5875L366.421 114.892Z" fill="#3555AE"/>
</mask>
<g mask="url(#mask10_64_252)">
<path d="M357.276 115.717L361.072 132.66L330.36 135.831L324.773 113.401C322.038 111.22 317.049 106.335 318.965 104.24C320.882 102.145 324.59 105.537 326.204 107.495C326.555 105.25 327.413 99.8454 328.038 96.1841C331.21 90.235 335.19 95.1907 336.783 98.4122L357.276 115.717Z" fill="black" fill-opacity="0.1"/>
</g>
<path d="M287.679 282.182C270.029 286.911 251.887 276.437 247.158 258.787C242.429 241.138 252.903 222.996 270.553 218.267L359.079 194.546C376.728 189.817 394.87 200.291 399.599 217.941C404.329 235.591 393.854 253.732 376.205 258.461L287.679 282.182Z" fill="#54C16C"/>
<mask id="mask11_64_252" style="mask-type:alpha" maskUnits="userSpaceOnUse" x="246" y="193" width="155" height="91">
<path d="M287.679 282.182C270.029 286.911 251.887 276.437 247.158 258.787C242.429 241.138 252.903 222.996 270.553 218.267L359.079 194.546C376.728 189.817 394.87 200.291 399.599 217.941C404.329 235.59 393.854 253.732 376.205 258.461L287.679 282.182Z" fill="#54C16C"/>
</mask>
<g mask="url(#mask11_64_252)">
<path d="M310.675 287.747C293.28 292.408 275.401 282.085 270.74 264.69C266.079 247.296 276.402 229.417 293.796 224.756L375.005 202.996C392.4 198.335 410.279 208.658 414.94 226.052C419.601 243.447 409.278 261.326 391.884 265.987L310.675 287.747Z" fill="black" fill-opacity="0.05"/>
</g>
<path d="M199.434 203.548C210.621 217.996 207.978 238.776 193.531 249.964C179.084 261.151 158.303 258.508 147.116 244.061L102.256 186.129C91.0692 171.682 93.712 150.901 108.159 139.714C122.606 128.527 143.387 131.17 154.574 145.617L199.434 203.548Z" fill="#54C16C"/>
<mask id="mask12_64_252" style="mask-type:alpha" maskUnits="userSpaceOnUse" x="95" y="132" width="112" height="125">
<path d="M199.434 203.549C210.621 217.996 207.978 238.777 193.531 249.964C179.084 261.151 158.303 258.508 147.116 244.061L102.256 186.129C91.0692 171.682 93.712 150.901 108.159 139.714C122.606 128.527 143.387 131.17 154.574 145.617L199.434 203.549Z" fill="#54C16C"/>
</mask>
<g mask="url(#mask12_64_252)">
<path d="M185.177 202.334C196.365 216.781 193.722 237.562 179.275 248.749C164.827 259.937 144.047 257.294 132.859 242.847L88.0001 184.915C76.8129 170.468 79.4556 149.687 93.9028 138.5C108.35 127.313 129.131 129.955 140.318 144.403L185.177 202.334Z" fill="black" fill-opacity="0.05"/>
</g>
<path d="M372.618 128.607L335.853 134.537C334.47 178.22 341.605 263.274 381.217 254.023C420.828 244.773 391.989 166.558 372.618 128.607Z" fill="#54C16C"/>
<mask id="mask13_64_252" style="mask-type:alpha" maskUnits="userSpaceOnUse" x="335" y="128" width="67" height="127">
<path d="M372.618 128.607L335.853 134.537C334.47 178.22 341.605 263.274 381.217 254.024C420.828 244.773 391.989 166.558 372.618 128.607Z" fill="#54C16C"/>
</mask>
<g mask="url(#mask13_64_252)">
<path d="M362.35 128.629L325.585 134.559C324.201 178.242 331.337 263.296 370.948 254.046C410.559 244.795 381.721 166.58 362.35 128.629Z" fill="black" fill-opacity="0.05"/>
<rect x="303.393" y="163.808" width="191.202" height="15.0949" transform="rotate(-9.16973 303.393 163.808)" fill="#D9D9D9"/>
</g>
<path d="M238.82 163.528C238.82 173.254 233.188 181.139 226.241 181.139C219.293 181.139 213.662 173.254 213.662 163.528C213.662 153.802 219.293 145.918 226.241 145.918C233.188 145.918 238.82 153.802 238.82 163.528Z" fill="#54C16C"/>
<path d="M268.171 193.299V201.266V206.297L223.725 205.039L228.337 176.946H239.658C264.816 176.946 284.524 162.969 291.232 155.981V185.332C291.232 193.047 275.858 193.858 268.171 193.299Z" fill="#FFC9AB"/>
<mask id="mask14_64_252" style="mask-type:alpha" maskUnits="userSpaceOnUse" x="223" y="155" width="69" height="52">
<path d="M268.171 193.299V201.266V206.297L223.725 205.039L228.337 176.946H239.658C264.816 176.946 284.524 162.969 291.232 155.981V185.332C291.232 193.047 275.858 193.858 268.171 193.299Z" fill="#FFC9AB"/>
</mask>
<g mask="url(#mask14_64_252)">
<path d="M263.14 193.299V201.266V206.297L218.693 205.039L223.306 176.946H234.627C259.785 176.946 279.492 162.969 286.201 155.981V185.332C286.201 193.047 270.827 193.858 263.14 193.299Z" fill="black" fill-opacity="0.05"/>
</g>
<path d="M136.51 285.545C136.51 237.146 175.745 197.911 224.144 197.911C272.543 197.911 311.779 237.146 311.779 285.545V420.98H136.51V285.545Z" fill="#54C16C"/>
<path d="M278.811 164.441C268.077 175.175 240.515 178.418 228.075 178.697C228.355 176.321 228.998 170.814 229.333 167.795C225.979 162.093 227.097 150.604 228.075 145.572L234.365 130.058L248.621 119.995C251.137 119.715 259.272 120.078 271.683 123.768C289.461 124.439 289.433 140.82 287.197 148.927C286.778 150.883 284.514 156.726 278.811 164.441Z" fill="#333333"/>
<mask id="mask15_64_252" style="mask-type:alpha" maskUnits="userSpaceOnUse" x="227" y="119" width="62" height="60">
<path d="M278.811 164.441C268.077 175.175 240.515 178.418 228.075 178.697C228.355 176.321 228.998 170.814 229.333 167.795C225.979 162.093 227.097 150.604 228.075 145.572L234.365 130.058L248.621 119.995C251.137 119.715 259.272 120.078 271.683 123.768C289.461 124.439 289.433 140.82 287.197 148.927C286.778 150.883 284.514 156.726 278.811 164.441Z" fill="#333333"/>
</mask>
<g mask="url(#mask15_64_252)">
<path d="M269.586 161.925C258.852 172.659 231.29 175.902 218.851 176.181C219.13 173.805 219.773 168.298 220.109 165.279C216.754 159.577 217.872 148.088 218.851 143.056L225.14 127.542L239.397 117.479C241.912 117.199 250.047 117.563 262.458 121.252C280.237 121.923 280.209 138.304 277.973 146.411C277.553 148.367 275.289 154.21 269.586 161.925Z" fill="black" fill-opacity="0.2"/>
</g>
<path d="M257.269 114.889C280.415 114.889 286.201 137.811 286.201 149.272H279.073C279.073 127.049 263.978 122.437 257.269 122.437C240.078 122.437 236.304 133.338 234.627 136.274C230.266 138.622 228.617 143.961 228.337 146.337C227.359 146.197 225.15 146.001 224.144 146.337C224.144 142.144 228.337 114.889 257.269 114.889Z" fill="#3555AE"/>
<ellipse cx="282.427" cy="163.528" rx="12.5791" ry="17.6107" fill="#54C16C"/>
<mask id="mask16_64_252" style="mask-type:alpha" maskUnits="userSpaceOnUse" x="136" y="197" width="176" height="224">
<path d="M136.51 285.545C136.51 237.146 175.745 197.911 224.144 197.911C272.543 197.911 311.779 237.146 311.779 285.545V420.98H136.51V285.545Z" fill="#54C16C"/>
</mask>
<g mask="url(#mask16_64_252)">
<rect x="130.64" y="297.705" width="191.202" height="22.6424" fill="#D9D9D9"/>
<path d="M120.576 285.545C120.576 237.146 159.811 197.911 208.211 197.911C256.61 197.911 295.845 237.146 295.845 285.545V420.98H120.576V285.545Z" fill="black" fill-opacity="0.05"/>
<path d="M183.088 281V272.954H172.666C171.298 272.954 170.038 272.63 168.886 271.982C167.734 271.334 166.816 270.47 166.132 269.39C165.448 268.31 165.106 267.122 165.106 265.826C165.106 265.106 165.196 264.386 165.376 263.666C165.556 262.946 165.79 262.298 166.078 261.722L175.906 243.2H184.6L173.098 264.476C172.99 264.692 172.918 264.854 172.882 264.962C172.846 265.07 172.828 265.214 172.828 265.394C172.828 265.61 172.9 265.79 173.044 265.934C173.188 266.078 173.386 266.15 173.638 266.15H183.088V253.406H190.81V266.15H195.67V272.954H190.81V281H183.088ZM215.355 281.648C212.619 281.648 210.171 281.054 208.011 279.866C205.851 278.678 204.141 277.076 202.881 275.06C201.657 273.008 201.045 270.722 201.045 268.202V255.998C201.045 253.478 201.657 251.21 202.881 249.194C204.141 247.142 205.851 245.522 208.011 244.334C210.171 243.146 212.619 242.552 215.355 242.552C218.055 242.552 220.467 243.146 222.591 244.334C224.751 245.522 226.443 247.142 227.667 249.194C228.927 251.21 229.557 253.478 229.557 255.998V268.202C229.557 270.722 228.927 273.008 227.667 275.06C226.443 277.076 224.751 278.678 222.591 279.866C220.467 281.054 218.055 281.648 215.355 281.648ZM215.355 274.844C216.543 274.844 217.623 274.574 218.595 274.034C219.567 273.458 220.341 272.702 220.917 271.766C221.529 270.83 221.835 269.804 221.835 268.688V255.512C221.835 254.36 221.529 253.334 220.917 252.434C220.341 251.498 219.567 250.76 218.595 250.22C217.623 249.644 216.543 249.356 215.355 249.356C214.167 249.356 213.069 249.644 212.061 250.22C211.053 250.76 210.243 251.498 209.631 252.434C209.055 253.334 208.767 254.36 208.767 255.512V268.688C208.767 269.804 209.055 270.83 209.631 271.766C210.243 272.702 211.053 273.458 212.061 274.034C213.069 274.574 214.167 274.844 215.355 274.844ZM252.908 281V272.954H242.486C241.118 272.954 239.858 272.63 238.706 271.982C237.554 271.334 236.636 270.47 235.952 269.39C235.268 268.31 234.926 267.122 234.926 265.826C234.926 265.106 235.016 264.386 235.196 263.666C235.376 262.946 235.61 262.298 235.898 261.722L245.726 243.2H254.42L242.918 264.476C242.81 264.692 242.738 264.854 242.702 264.962C242.666 265.07 242.648 265.214 242.648 265.394C242.648 265.61 242.72 265.79 242.864 265.934C243.008 266.078 243.206 266.15 243.458 266.15H252.908V253.406H260.63V266.15H265.49V272.954H260.63V281H252.908Z" fill="#3555AE"/>
<path d="M169.368 349.232C169.368 350.683 169.165 351.973 168.76 353.104C168.376 354.235 167.811 355.195 167.064 355.984C166.339 356.752 165.453 357.339 164.408 357.744C163.363 358.128 162.179 358.32 160.856 358.32C159.64 358.32 158.509 358.128 157.464 357.744C156.44 357.339 155.555 356.752 154.808 355.984C154.061 355.195 153.475 354.235 153.048 353.104C152.643 351.973 152.44 350.683 152.44 349.232C152.44 347.291 152.781 345.659 153.464 344.336C154.147 342.992 155.128 341.968 156.408 341.264C157.688 340.56 159.203 340.208 160.952 340.208C162.595 340.208 164.045 340.56 165.304 341.264C166.563 341.968 167.555 342.992 168.28 344.336C169.005 345.659 169.368 347.291 169.368 349.232ZM157.304 349.232C157.304 350.384 157.421 351.355 157.656 352.144C157.912 352.912 158.307 353.499 158.84 353.904C159.373 354.288 160.067 354.48 160.92 354.48C161.773 354.48 162.456 354.288 162.968 353.904C163.501 353.499 163.885 352.912 164.12 352.144C164.376 351.355 164.504 350.384 164.504 349.232C164.504 348.08 164.376 347.12 164.12 346.352C163.885 345.584 163.501 345.008 162.968 344.624C162.435 344.24 161.741 344.048 160.888 344.048C159.629 344.048 158.712 344.485 158.136 345.36C157.581 346.213 157.304 347.504 157.304 349.232ZM199.325 340.528V358H173.309V340.528H178.077V354.416H183.933V340.528H188.701V354.416H194.557V340.528H199.325ZM208.917 347.44C208.917 347.803 208.895 348.251 208.853 348.784C208.831 349.317 208.799 349.861 208.757 350.416C208.735 350.971 208.703 351.461 208.661 351.888C208.618 352.315 208.586 352.613 208.565 352.784L216.629 340.528H222.357V358H217.749V351.024C217.749 350.448 217.77 349.819 217.812 349.136C217.855 348.432 217.898 347.781 217.941 347.184C218.005 346.565 218.047 346.096 218.069 345.776L210.036 358H204.309V340.528H208.917V347.44ZM226.284 347.536C226.284 344.955 226.604 342.768 227.244 340.976C227.884 339.163 228.897 337.723 230.284 336.656C231.67 335.568 233.484 334.832 235.724 334.448C236.854 334.256 237.996 334.096 239.148 333.968C240.321 333.819 241.526 333.669 242.764 333.52L243.308 337.68C242.774 337.744 242.188 337.819 241.548 337.904C240.908 337.968 240.257 338.043 239.596 338.128C238.956 338.192 238.337 338.267 237.74 338.352C237.142 338.437 236.598 338.512 236.108 338.576C235.318 338.704 234.625 338.885 234.028 339.12C233.43 339.333 232.929 339.643 232.524 340.048C232.118 340.453 231.798 341.008 231.564 341.712C231.35 342.395 231.212 343.28 231.148 344.368H231.372C231.628 343.963 231.98 343.557 232.428 343.152C232.897 342.747 233.473 342.405 234.156 342.128C234.838 341.851 235.617 341.712 236.492 341.712C237.878 341.712 239.084 342 240.108 342.576C241.132 343.152 241.921 344.005 242.476 345.136C243.03 346.267 243.308 347.675 243.308 349.36C243.308 351.344 242.945 352.997 242.22 354.32C241.494 355.643 240.492 356.645 239.212 357.328C237.932 357.989 236.449 358.32 234.764 358.32C233.484 358.32 232.321 358.085 231.276 357.616C230.23 357.147 229.334 356.453 228.588 355.536C227.841 354.619 227.265 353.488 226.86 352.144C226.476 350.8 226.284 349.264 226.284 347.536ZM235.052 354.448C235.734 354.448 236.321 354.299 236.812 354C237.324 353.701 237.718 353.211 237.996 352.528C238.294 351.845 238.444 350.928 238.444 349.776C238.444 348.389 238.209 347.291 237.74 346.48C237.292 345.648 236.502 345.232 235.372 345.232C234.689 345.232 234.049 345.403 233.452 345.744C232.876 346.064 232.385 346.437 231.98 346.864C231.574 347.269 231.297 347.621 231.148 347.92C231.148 348.752 231.212 349.563 231.34 350.352C231.468 351.12 231.681 351.813 231.98 352.432C232.278 353.051 232.673 353.541 233.164 353.904C233.676 354.267 234.305 354.448 235.052 354.448ZM258.702 340.528H263.95L257.038 348.912L264.558 358H259.15L252.014 349.136V358H247.246V340.528H252.014V349.008L258.702 340.528ZM274.227 340.176C276.573 340.176 278.365 340.688 279.603 341.712C280.861 342.715 281.491 344.261 281.491 346.352V358H278.163L277.235 355.632H277.107C276.616 356.251 276.104 356.763 275.571 357.168C275.059 357.573 274.461 357.861 273.779 358.032C273.117 358.224 272.296 358.32 271.315 358.32C270.291 358.32 269.363 358.128 268.531 357.744C267.72 357.339 267.08 356.731 266.611 355.92C266.141 355.088 265.907 354.043 265.907 352.784C265.907 350.928 266.557 349.563 267.859 348.688C269.16 347.792 271.112 347.301 273.715 347.216L276.755 347.12V346.352C276.755 345.435 276.509 344.763 276.019 344.336C275.549 343.909 274.888 343.696 274.035 343.696C273.181 343.696 272.349 343.824 271.539 344.08C270.728 344.315 269.917 344.613 269.107 344.976L267.539 341.744C268.477 341.253 269.512 340.869 270.643 340.592C271.795 340.315 272.989 340.176 274.227 340.176ZM274.899 349.968C273.363 350.011 272.296 350.288 271.699 350.8C271.101 351.312 270.803 351.984 270.803 352.816C270.803 353.541 271.016 354.064 271.443 354.384C271.869 354.683 272.424 354.832 273.107 354.832C274.131 354.832 274.995 354.533 275.699 353.936C276.403 353.317 276.755 352.453 276.755 351.344V349.904L274.899 349.968Z" fill="#3555AE"/>
</g>
</svg>
