<svg width="20" height="20" viewBox="0 0 20 20" fill="none" xmlns="http://www.w3.org/2000/svg">
<g id="square-plus 2" clip-path="url(#clip0_278_109)">
<path id="Vector" d="M20 4.16667V15.8333C20 18.1308 18.1308 20 15.8333 20H4.16667C1.86917 20 0 18.1308 0 15.8333V4.16667C0 1.86917 1.86917 0 4.16667 0H15.8333C18.1308 0 20 1.86917 20 4.16667ZM18.3333 4.16667C18.3333 2.78833 17.2117 1.66667 15.8333 1.66667H4.16667C2.78833 1.66667 1.66667 2.78833 1.66667 4.16667V15.8333C1.66667 17.2117 2.78833 18.3333 4.16667 18.3333H15.8333C17.2117 18.3333 18.3333 17.2117 18.3333 15.8333V4.16667Z" fill="#777777"/>
<rect id="Rectangle 138" x="7" y="5" width="1.65" height="10" rx="0.825" fill="#777777"/>
<rect id="Rectangle 139" x="11" y="5" width="1.65" height="10" rx="0.825" fill="#777777"/>
</g>
<defs>
<clipPath id="clip0_278_109">
<rect width="20" height="20" fill="white"/>
</clipPath>
</defs>
</svg>
