<svg width="20" height="20" viewBox="0 0 20 20" fill="none" xmlns="http://www.w3.org/2000/svg">
<g id="pause-circle 2" clip-path="url(#clip0_371_77)">
<path id="Vector" d="M10 0C4.48583 0 0 4.48583 0 10C0 15.5142 4.48583 20 10 20C15.5142 20 20 15.5142 20 10C20 4.48583 15.5142 0 10 0ZM10 18.3333C5.405 18.3333 1.66667 14.595 1.66667 10C1.66667 5.405 5.405 1.66667 10 1.66667C14.595 1.66667 18.3333 5.405 18.3333 10C18.3333 14.595 14.595 18.3333 10 18.3333ZM9.16667 7.5V12.5C9.16667 12.96 8.79333 13.3333 8.33333 13.3333C7.87333 13.3333 7.5 12.96 7.5 12.5V7.5C7.5 7.04 7.87333 6.66667 8.33333 6.66667C8.79333 6.66667 9.16667 7.04 9.16667 7.5ZM12.5 7.5V12.5C12.5 12.96 12.1267 13.3333 11.6667 13.3333C11.2067 13.3333 10.8333 12.96 10.8333 12.5V7.5C10.8333 7.04 11.2067 6.66667 11.6667 6.66667C12.1267 6.66667 12.5 7.04 12.5 7.5Z" fill="#EE8C55"/>
</g>
<defs>
<clipPath id="clip0_371_77">
<rect width="20" height="20" fill="white"/>
</clipPath>
</defs>
</svg>
