<svg width="274" height="56" viewBox="0 0 274 56" fill="none" xmlns="http://www.w3.org/2000/svg">
<g clip-path="url(#clip0_1_36)">
<path d="M35.6458 42.6627C32.5752 45.7314 28.5377 47.2632 24.5036 47.2632C20.4693 47.2632 16.4344 45.7286 13.3606 42.6595C10.2872 39.5905 8.75 35.5655 8.75 31.5373C8.75 27.5092 10.2872 23.4809 13.3606 20.4121V20.4089C16.4317 17.3428 20.4693 15.8085 24.5036 15.8116C28.5377 15.815 32.5752 17.346 35.6458 20.4121C41.7872 26.5471 41.79 36.5303 35.6458 42.6627ZM41.834 14.2339C37.055 9.4592 30.7786 7.07529 24.5025 7.07529C18.2892 7.07529 12.0758 9.40928 7.3183 14.0831L7.17093 14.2339L7.09551 14.3055L7.02029 14.3812C4.67285 16.7651 2.91557 19.5098 1.74469 22.4394C-1.77616 31.252 0.0315538 41.7131 7.17093 48.8409C11.9468 53.6093 18.2261 55.9968 24.5025 56C30.7819 55.9968 37.0582 53.6093 41.834 48.8409C51.3926 39.2978 51.3926 23.7738 41.834 14.2339Z" fill="#1A2D67"/>
<path d="M92.725 8.2399H83.426C82.5987 8.2399 81.811 8.59012 81.2582 9.20306L40.1035 54.8349H49.4032C50.23 54.8349 51.0177 54.4848 51.5709 53.8712L86.3661 15.2903V31.5373H92.2004C93.8113 31.5373 95.1172 30.2335 95.1172 28.6253V8.2399H92.725Z" fill="#1A2D67"/>
<path d="M140.335 8.2399H131.429C130.602 8.2399 129.814 8.59012 129.26 9.20306L109.701 30.8907V8.2399H103.851C102.249 8.2399 100.951 9.52536 100.951 11.111V54.8349H109.701V32.184L129.26 53.8712C129.814 54.4848 130.602 54.8349 131.429 54.8349H140.335L119.324 31.5373L140.335 8.2399Z" fill="#1A2D67"/>
<path d="M74.8016 36.4562C85.7293 40.2809 90.1508 44.6961 93.9816 55.6064C94.2003 56.2268 95.1163 56.0741 95.1163 55.417V38.2354C95.1163 36.627 93.8105 35.3234 92.2004 35.3234H74.9904C74.3319 35.3234 74.1801 36.2387 74.8016 36.4562Z" fill="#1A2D67"/>
<path d="M169.515 28.5044C169.515 28.8059 169.281 28.9638 169.05 28.9638C168.849 28.9638 168.689 28.8477 168.621 28.6532C164.789 17.7441 160.29 13.2522 149.364 9.42817C149.091 9.33249 149.029 9.09141 149.06 8.9141C149.09 8.73885 149.226 8.5341 149.512 8.5341H166.722C168.262 8.5341 169.515 9.78532 169.515 11.3233V28.5044ZM160.46 0.101318C150.794 0.101318 142.959 7.92407 142.959 17.5743C142.959 27.2244 150.794 35.0477 160.46 35.0477C170.126 35.0477 177.962 27.2244 177.962 17.5743C177.962 7.92407 170.126 0.101318 160.46 0.101318Z" fill="#3555AE"/>
<path d="M190.752 36.7061V48.5133L199.544 36.7061H202.76V54.8313H199.052V42.9468L190.156 54.8313H187.018V36.7061H190.752Z" fill="#1A2D67"/>
<path d="M216.325 43.8919C216.835 43.5023 217.091 42.9468 217.091 42.2216C217.091 41.4791 216.835 40.9187 216.325 40.5388C215.816 40.1589 215.119 39.9688 214.238 39.9688H210.296V44.4741H214.238C215.119 44.4741 215.816 44.2803 216.325 43.8919ZM214.498 36.7061C215.483 36.7061 216.369 36.8394 217.156 37.1067C217.942 37.3755 218.608 37.7498 219.153 38.2339C219.697 38.7174 220.112 39.2953 220.397 39.9688C220.683 40.6415 220.825 41.3755 220.825 42.1692C220.825 42.9633 220.683 43.6969 220.397 44.3705C220.112 45.0441 219.697 45.6223 219.153 46.1057C218.608 46.5884 217.942 46.9683 217.156 47.2447C216.369 47.521 215.483 47.6584 214.498 47.6584H210.296V54.8313H206.561V36.7061H214.498Z" fill="#1A2D67"/>
<path d="M227.007 36.7061V43.8532L233.699 36.7061H238.263L230.56 45.018L239.586 54.8313H234.814L227.007 46.4679V54.8313H223.272V36.7061H227.007Z" fill="#1A2D67"/>
<path d="M242.953 55.077C242.409 54.9993 241.99 54.8659 241.696 54.6765V51.3875C242.042 51.5768 242.409 51.7073 242.798 51.7762C243.187 51.8443 243.52 51.879 243.796 51.879C244.159 51.879 244.488 51.8443 244.782 51.7762C245.076 51.7073 245.344 51.5768 245.586 51.3875C245.828 51.1969 246.067 50.9395 246.3 50.6107C246.532 50.282 246.77 49.8682 247.012 49.3674L240.14 36.7064H244.264L248.855 45.6134L252.873 36.7064H256.841L250.151 50.8951C249.736 51.7932 249.282 52.5224 248.79 53.0836C248.296 53.6448 247.794 54.0803 247.284 54.3909C246.775 54.7015 246.278 54.913 245.793 55.0254C245.309 55.1378 244.86 55.1934 244.445 55.1934C243.996 55.1934 243.498 55.1552 242.953 55.077Z" fill="#1A2D67"/>
<path d="M273.65 40.0466H267.892V54.8312H264.157V40.0466H258.426V36.7059H273.65V40.0466Z" fill="#1A2D67"/>
</g>
<defs>
<clipPath id="clip0_1_36">
<rect width="274" height="56" fill="white"/>
</clipPath>
</defs>
</svg>
