<svg width="20" height="20" viewBox="0 0 20 20" fill="none" xmlns="http://www.w3.org/2000/svg">
<g clip-path="url(#clip0_1_121)">
<path d="M19.7557 18.5774L14.7815 13.6033C16.137 11.9454 16.8035 9.83002 16.643 7.69457C16.4826 5.55913 15.5075 3.56705 13.9195 2.13037C12.3314 0.693699 10.252 -0.0776494 8.11119 -0.0241229C5.97039 0.0294036 3.93207 0.90371 2.41783 2.41795C0.903588 3.93219 0.0292815 5.97052 -0.024245 8.11131C-0.0777715 10.2521 0.693577 12.3316 2.13025 13.9196C3.56693 15.5076 5.55901 16.4827 7.69445 16.6431C9.8299 16.8036 11.9453 16.1371 13.6032 14.7816L18.5773 19.7558C18.7345 19.9076 18.945 19.9916 19.1635 19.9897C19.382 19.9878 19.591 19.9001 19.7455 19.7456C19.9 19.5911 19.9876 19.3821 19.9895 19.1636C19.9914 18.9451 19.9075 18.7346 19.7557 18.5774ZM8.33315 14.9999C7.01461 14.9999 5.72568 14.6089 4.62935 13.8764C3.53302 13.1439 2.67854 12.1027 2.17395 10.8845C1.66937 9.66632 1.53735 8.32588 1.79458 7.03267C2.05182 5.73947 2.68676 4.55158 3.61911 3.61923C4.55146 2.68688 5.73934 2.05194 7.03255 1.7947C8.32576 1.53747 9.6662 1.66949 10.8844 2.17408C12.1025 2.67866 13.1437 3.53314 13.8763 4.62947C14.6088 5.7258 14.9998 7.01473 14.9998 8.33327C14.9978 10.1008 14.2948 11.7953 13.045 13.0451C11.7952 14.2949 10.1007 14.998 8.33315 14.9999Z" fill="#9D9D9D"/>
</g>
<defs>
<clipPath id="clip0_1_121">
<rect width="20" height="20" fill="white"/>
</clipPath>
</defs>
</svg>
