<svg width="25" height="25" viewBox="0 0 25 25" fill="none" xmlns="http://www.w3.org/2000/svg">
<g clip-path="url(#clip0_227_47)">
<path d="M1.04167 4.9477H3.89167C4.11525 5.77034 4.60331 6.49655 5.28055 7.01429C5.95779 7.53204 6.78658 7.81255 7.63906 7.81255C8.49154 7.81255 9.32033 7.53204 9.99758 7.01429C10.6748 6.49655 11.1629 5.77034 11.3865 4.9477H23.9583C24.2346 4.9477 24.4996 4.83795 24.6949 4.6426C24.8903 4.44725 25 4.1823 25 3.90603C25 3.62976 24.8903 3.36481 24.6949 3.16946C24.4996 2.97411 24.2346 2.86436 23.9583 2.86436H11.3865C11.1629 2.04173 10.6748 1.31552 9.99758 0.79777C9.32033 0.280023 8.49154 -0.000488281 7.63906 -0.000488281C6.78658 -0.000488281 5.95779 0.280023 5.28055 0.79777C4.60331 1.31552 4.11525 2.04173 3.89167 2.86436H1.04167C0.765399 2.86436 0.500447 2.97411 0.305097 3.16946C0.109747 3.36481 0 3.62976 0 3.90603C0 4.1823 0.109747 4.44725 0.305097 4.6426C0.500447 4.83795 0.765399 4.9477 1.04167 4.9477ZM7.63854 2.08311C7.99908 2.08311 8.35152 2.19003 8.6513 2.39033C8.95108 2.59064 9.18472 2.87534 9.3227 3.20843C9.46067 3.54153 9.49677 3.90805 9.42643 4.26166C9.35609 4.61528 9.18248 4.94009 8.92754 5.19503C8.6726 5.44997 8.34779 5.62358 7.99417 5.69392C7.64056 5.76426 7.27404 5.72816 6.94094 5.59019C6.60785 5.45221 6.32315 5.21857 6.12284 4.91879C5.92254 4.61901 5.81562 4.26657 5.81562 3.90603C5.81618 3.42273 6.00841 2.95939 6.35015 2.61764C6.6919 2.2759 7.15524 2.08367 7.63854 2.08311Z" fill="#333333"/>
<path d="M23.9583 11.4584H21.1083C20.8851 10.6356 20.3973 9.9091 19.7201 9.39114C19.0429 8.87317 18.214 8.59253 17.3615 8.59253C16.5089 8.59253 15.68 8.87317 15.0028 9.39114C14.3257 9.9091 13.8378 10.6356 13.6146 11.4584H1.04167C0.765399 11.4584 0.500447 11.5681 0.305097 11.7635C0.109747 11.9588 0 12.2238 0 12.5001C0 12.7763 0.109747 13.0413 0.305097 13.2366C0.500447 13.432 0.765399 13.5417 1.04167 13.5417H13.6146C13.8378 14.3646 14.3257 15.091 15.0028 15.609C15.68 16.127 16.5089 16.4076 17.3615 16.4076C18.214 16.4076 19.0429 16.127 19.7201 15.609C20.3973 15.091 20.8851 14.3646 21.1083 13.5417H23.9583C24.2346 13.5417 24.4996 13.432 24.6949 13.2366C24.8903 13.0413 25 12.7763 25 12.5001C25 12.2238 24.8903 11.9588 24.6949 11.7635C24.4996 11.5681 24.2346 11.4584 23.9583 11.4584ZM17.3615 14.323C17.0009 14.323 16.6485 14.2161 16.3487 14.0158C16.0489 13.8155 15.8153 13.5308 15.6773 13.1977C15.5393 12.8646 15.5032 12.498 15.5736 12.1444C15.6439 11.7908 15.8175 11.466 16.0725 11.2111C16.3274 10.9561 16.6522 10.7825 17.0058 10.7122C17.3594 10.6418 17.726 10.6779 18.0591 10.8159C18.3922 10.9539 18.6769 11.1875 18.8772 11.4873C19.0775 11.7871 19.1844 12.1395 19.1844 12.5001C19.1838 12.9834 18.9916 13.4467 18.6498 13.7885C18.3081 14.1302 17.8448 14.3224 17.3615 14.323Z" fill="#333333"/>
<path d="M23.9583 20.0521H11.3865C11.1629 19.2295 10.6748 18.5033 9.99758 17.9855C9.32033 17.4678 8.49154 17.1873 7.63906 17.1873C6.78658 17.1873 5.95779 17.4678 5.28055 17.9855C4.60331 18.5033 4.11525 19.2295 3.89167 20.0521H1.04167C0.765399 20.0521 0.500447 20.1619 0.305097 20.3572C0.109747 20.5526 0 20.8175 0 21.0938C0 21.37 0.109747 21.635 0.305097 21.8303C0.500447 22.0257 0.765399 22.1354 1.04167 22.1354H3.89167C4.11525 22.9581 4.60331 23.6843 5.28055 24.202C5.95779 24.7198 6.78658 25.0003 7.63906 25.0003C8.49154 25.0003 9.32033 24.7198 9.99758 24.202C10.6748 23.6843 11.1629 22.9581 11.3865 22.1354H23.9583C24.2346 22.1354 24.4996 22.0257 24.6949 21.8303C24.8903 21.635 25 21.37 25 21.0938C25 20.8175 24.8903 20.5526 24.6949 20.3572C24.4996 20.1619 24.2346 20.0521 23.9583 20.0521ZM7.63854 22.9167C7.278 22.9167 6.92556 22.8098 6.62578 22.6095C6.32601 22.4092 6.09236 22.1245 5.95439 21.7914C5.81641 21.4583 5.78031 21.0918 5.85065 20.7381C5.92099 20.3845 6.09461 20.0597 6.34954 19.8048C6.60448 19.5498 6.9293 19.3762 7.28291 19.3059C7.63652 19.2355 8.00305 19.2716 8.33614 19.4096C8.66924 19.5476 8.95394 19.7812 9.15424 20.081C9.35455 20.3808 9.46146 20.7332 9.46146 21.0938C9.46063 21.577 9.26831 22.0402 8.92663 22.3819C8.58494 22.7235 8.12176 22.9159 7.63854 22.9167Z" fill="#333333"/>
</g>
<defs>
<clipPath id="clip0_227_47">
<rect width="25" height="25" fill="white"/>
</clipPath>
</defs>
</svg>
