<svg width="50" height="50" viewBox="0 0 50 50" fill="none" xmlns="http://www.w3.org/2000/svg">
<g clip-path="url(#clip0_1_90)">
<path d="M38.9854 25H29.1667C28.0616 25 27.0018 24.561 26.2204 23.7796C25.439 22.9982 25 21.9384 25 20.8333V10.9875C25.0029 10.0291 24.7853 9.08296 24.3641 8.22211C23.9428 7.36126 23.3293 6.60881 22.5709 6.02293C21.8522 5.45379 21.0123 5.05746 20.1161 4.86456C19.2199 4.67166 18.2913 4.68736 17.4021 4.91043C12.3514 6.1642 7.87989 9.10431 4.72706 13.2445C1.57423 17.3847 -0.0710596 22.477 0.063285 27.6793C0.19763 32.8816 2.10356 37.8822 5.46588 41.8542C8.8282 45.8261 13.4455 48.5315 18.5542 49.5229C24.2982 50.6224 30.2451 49.4842 35.1772 46.3415C40.1093 43.1988 43.6533 38.2894 45.0834 32.6188C45.3073 31.7284 45.3236 30.7985 45.1311 29.9009C44.9385 29.0033 44.5423 28.1619 43.9729 27.4417C43.3801 26.6843 42.6234 26.0711 41.7595 25.6482C40.8957 25.2253 39.9472 25.0037 38.9854 25ZM41.0438 31.6C40.2461 34.8122 38.6095 37.7549 36.3014 40.1271C33.9933 42.4993 31.0965 44.2159 27.9074 45.1012C24.7182 45.9866 21.3511 46.0089 18.1505 45.166C14.9498 44.3231 12.0305 42.6452 9.69109 40.3038C7.35169 37.9625 5.67617 35.0418 4.83591 31.8404C3.99565 28.6391 4.02079 25.272 4.90878 22.0836C5.79676 18.8951 7.51572 15.9998 9.88983 13.6936C12.2639 11.3875 15.208 9.75336 18.4209 8.95834C18.6957 8.88967 18.9829 8.88631 19.2592 8.94854C19.5356 9.01076 19.7936 9.13684 20.0125 9.31668C20.2711 9.51378 20.4807 9.76778 20.6252 10.059C20.7697 10.3502 20.8452 10.6708 20.8459 10.9958V20.8333C20.8459 23.0435 21.7238 25.1631 23.2866 26.7259C24.8494 28.2887 26.9691 29.1667 29.1792 29.1667H38.9959C39.3238 29.168 39.6471 29.2437 39.9416 29.388C40.2361 29.5324 40.4939 29.7416 40.6959 30C40.873 30.222 40.9963 30.4819 41.0563 30.7595C41.1163 31.037 41.1134 31.3247 41.0438 31.6Z" fill="#333333"/>
<path d="M49.2727 15.5125C48.3136 11.9864 46.4503 8.77188 43.8673 6.18704C41.2843 3.60221 38.0711 1.73665 34.5456 0.775005C34.176 0.67565 33.795 0.625219 33.4123 0.625005C32.8618 0.619775 32.3157 0.723688 31.8056 0.93074C31.2955 1.13779 30.8315 1.44388 30.4404 1.83131C30.0493 2.21874 29.7388 2.67984 29.527 3.18796C29.3151 3.69608 29.206 4.24115 29.2061 4.79167V14.5833C29.2061 16.2409 29.8645 17.8307 31.0366 19.0028C32.2087 20.1749 33.7984 20.8333 35.4561 20.8333H45.2873C45.9304 20.8272 46.5633 20.6728 47.1371 20.3823C47.7108 20.0917 48.2098 19.6728 48.5953 19.1581C48.9808 18.6434 49.2425 18.0467 49.36 17.4145C49.4775 16.7822 49.4476 16.1314 49.2727 15.5125ZM44.0686 16.6667H35.4477C34.8952 16.6667 34.3653 16.4472 33.9746 16.0565C33.5839 15.6658 33.3644 15.1359 33.3644 14.5833L33.3477 4.80625C33.363 4.79523 33.381 4.78873 33.3998 4.78751H33.454C36.2917 5.5606 38.877 7.0644 40.9519 9.14884C43.0269 11.2333 44.5189 13.8255 45.279 16.6667H44.0686Z" fill="#333333"/>
</g>
<defs>
<clipPath id="clip0_1_90">
<rect width="50" height="50" fill="white"/>
</clipPath>
</defs>
</svg>
