<svg width="42" height="50" viewBox="0 0 42 50" fill="none" xmlns="http://www.w3.org/2000/svg">
<path d="M31.25 29.1667C31.25 29.7192 31.0305 30.2491 30.6398 30.6398C30.2491 31.0305 29.7192 31.25 29.1666 31.25H12.5C11.9475 31.25 11.4176 31.0305 11.0269 30.6398C10.6362 30.2491 10.4167 29.7192 10.4167 29.1667C10.4167 28.6142 10.6362 28.0842 11.0269 27.6935C11.4176 27.3028 11.9475 27.0834 12.5 27.0834H29.1666C29.7192 27.0834 30.2491 27.3028 30.6398 27.6935C31.0305 28.0842 31.25 28.6142 31.25 29.1667ZM22.9166 35.4167H12.5C11.9475 35.4167 11.4176 35.6362 11.0269 36.0269C10.6362 36.4176 10.4167 36.9475 10.4167 37.5C10.4167 38.0525 10.6362 38.5825 11.0269 38.9732C11.4176 39.3639 11.9475 39.5833 12.5 39.5833H22.9166C23.4692 39.5833 23.9991 39.3639 24.3898 38.9732C24.7805 38.5825 25 38.0525 25 37.5C25 36.9475 24.7805 36.4176 24.3898 36.0269C23.9991 35.6362 23.4692 35.4167 22.9166 35.4167ZM41.6666 21.8438V39.5833C41.6633 42.345 40.5648 44.9926 38.612 46.9454C36.6592 48.8982 34.0116 49.9967 31.25 50H10.4167C7.655 49.9967 5.00741 48.8982 3.05462 46.9454C1.10184 44.9926 0.00330803 42.345 0 39.5833V10.4167C0.00330803 7.65505 1.10184 5.00746 3.05462 3.05467C5.00741 1.10188 7.655 0.00335605 10.4167 4.8018e-05H19.8229C21.7388 -0.00488307 23.6366 0.370022 25.4067 1.10309C27.1768 1.83615 28.784 2.91283 30.1354 4.27088L37.3937 11.5334C38.7525 12.8839 39.8299 14.4906 40.5633 16.2604C41.2968 18.0302 41.6718 19.928 41.6666 21.8438ZM27.1896 7.21671C26.5339 6.58163 25.7978 6.0353 25 5.59171V14.5834C25 15.1359 25.2195 15.6658 25.6102 16.0565C26.0009 16.4472 26.5308 16.6667 27.0833 16.6667H36.075C35.6311 15.8692 35.084 15.1337 34.4479 14.4792L27.1896 7.21671ZM37.5 21.8438C37.5 21.5 37.4333 21.1709 37.402 20.8334H27.0833C25.4257 20.8334 23.836 20.1749 22.6639 19.0028C21.4918 17.8307 20.8333 16.241 20.8333 14.5834V4.26463C20.4958 4.23338 20.1646 4.16671 19.8229 4.16671H10.4167C8.75906 4.16671 7.16935 4.82519 5.99724 5.99729C4.82514 7.16939 4.16666 8.7591 4.16666 10.4167V39.5833C4.16666 41.2409 4.82514 42.8307 5.99724 44.0028C7.16935 45.1749 8.75906 45.8333 10.4167 45.8333H31.25C32.9076 45.8333 34.4973 45.1749 35.6694 44.0028C36.8415 42.8307 37.5 41.2409 37.5 39.5833V21.8438Z" fill="#333333"/>
</svg>
