<svg width="20" height="20" viewBox="0 0 20 20" fill="none" xmlns="http://www.w3.org/2000/svg">
<g clip-path="url(#clip0_133_77)">
<path d="M15.8333 3.33333H14.9167C14.7233 2.39284 14.2115 1.54779 13.4677 0.940598C12.7239 0.333408 11.7935 0.0012121 10.8333 0L9.16667 0C8.2065 0.0012121 7.2761 0.333408 6.53229 0.940598C5.78848 1.54779 5.27675 2.39284 5.08333 3.33333H4.16667C3.062 3.33466 2.00296 3.77407 1.22185 4.55518C0.440735 5.3363 0.00132321 6.39534 0 7.5L0 15.8333C0.00132321 16.938 0.440735 17.997 1.22185 18.7782C2.00296 19.5593 3.062 19.9987 4.16667 20H15.8333C16.938 19.9987 17.997 19.5593 18.7782 18.7782C19.5593 17.997 19.9987 16.938 20 15.8333V7.5C19.9987 6.39534 19.5593 5.3363 18.7782 4.55518C17.997 3.77407 16.938 3.33466 15.8333 3.33333ZM9.16667 1.66667H10.8333C11.3486 1.6688 11.8505 1.83007 12.2706 2.12841C12.6906 2.42674 13.0083 2.84758 13.18 3.33333H6.82C6.99174 2.84758 7.30936 2.42674 7.72942 2.12841C8.14948 1.83007 8.65145 1.6688 9.16667 1.66667ZM4.16667 5H15.8333C16.4964 5 17.1323 5.26339 17.6011 5.73223C18.0699 6.20107 18.3333 6.83696 18.3333 7.5V10H1.66667V7.5C1.66667 6.83696 1.93006 6.20107 2.3989 5.73223C2.86774 5.26339 3.50363 5 4.16667 5ZM15.8333 18.3333H4.16667C3.50363 18.3333 2.86774 18.0699 2.3989 17.6011C1.93006 17.1323 1.66667 16.4964 1.66667 15.8333V11.6667H9.16667V12.5C9.16667 12.721 9.25446 12.933 9.41074 13.0893C9.56702 13.2455 9.77899 13.3333 10 13.3333C10.221 13.3333 10.433 13.2455 10.5893 13.0893C10.7455 12.933 10.8333 12.721 10.8333 12.5V11.6667H18.3333V15.8333C18.3333 16.4964 18.0699 17.1323 17.6011 17.6011C17.1323 18.0699 16.4964 18.3333 15.8333 18.3333Z" fill="#EBB855"/>
</g>
<defs>
<clipPath id="clip0_133_77">
<rect width="20" height="20" fill="white"/>
</clipPath>
</defs>
</svg>
