<svg width="50" height="50" viewBox="0 0 50 50" fill="none" xmlns="http://www.w3.org/2000/svg">
<g clip-path="url(#clip0_227_45)">
<path d="M15.6355 50C11.8642 49.9976 8.22096 48.6312 5.37815 46.153C2.53533 43.6748 0.684775 40.252 0.167955 36.5163C-0.348864 32.7805 0.502931 28.9839 2.56616 25.8269C4.62939 22.67 7.76482 20.3658 11.3939 19.3396C14.0316 18.5843 16.8236 18.5497 19.4793 19.2396L35.9543 2.76879C36.8289 1.88813 37.8697 1.1899 39.0162 0.714615C40.1628 0.239326 41.3923 -0.00356209 42.6334 3.94734e-05C44.5867 0.00169454 46.4595 0.778355 47.8406 2.15951C49.2218 3.54067 49.9985 5.41345 50.0001 7.36671C50.0033 8.60794 49.7605 9.83749 49.2856 10.9843C48.8107 12.1311 48.1132 13.1724 47.2334 14.048L45.8334 15.448C45.0501 16.226 43.9917 16.6638 42.8876 16.6667H39.5834V18.75C39.5834 19.8551 39.1445 20.9149 38.3631 21.6963C37.5817 22.4777 36.5219 22.9167 35.4168 22.9167H33.3335V26.2209C33.3349 26.7682 33.2278 27.3105 33.0182 27.8161C32.8087 28.3218 32.5009 28.7809 32.1126 29.1667L30.7584 30.5209C31.4521 33.1752 31.4183 35.9674 30.6605 38.6042C29.8079 41.6084 28.0778 44.2897 25.6921 46.3046C23.3063 48.3196 20.3734 49.5766 17.2689 49.9146C16.7262 49.971 16.1811 49.9995 15.6355 50ZM15.6355 22.9167C13.5025 22.9146 11.4113 23.508 9.59717 24.63C7.78309 25.752 6.3182 27.3581 5.36741 29.2675C4.41662 31.1769 4.01767 33.3138 4.21548 35.4376C4.41328 37.5614 5.19998 39.5879 6.48703 41.2889C7.77407 42.9899 9.51036 44.2978 11.5004 45.0655C13.4905 45.8332 15.6554 46.0302 17.7513 45.6342C19.8473 45.2383 21.7911 44.2652 23.364 42.8244C24.9369 41.3837 26.0764 39.5325 26.6543 37.4792C27.3043 35.222 27.2314 32.8179 26.4459 30.6042C26.3178 30.2345 26.2963 29.8362 26.384 29.4548C26.4717 29.0735 26.665 28.7245 26.9418 28.448L29.1668 26.2209V22.9167C29.1668 21.8116 29.6058 20.7518 30.3872 19.9704C31.1686 19.189 32.2284 18.75 33.3335 18.75H35.4168V16.6667C35.4168 15.5616 35.8558 14.5018 36.6372 13.7204C37.4186 12.939 38.4784 12.5 39.5834 12.5H42.8876L44.2876 11.1C44.7792 10.6108 45.1689 10.0289 45.4342 9.38812C45.6996 8.74731 45.8353 8.06027 45.8334 7.36671C45.8329 6.51854 45.4959 5.70525 44.8963 5.10531C44.2968 4.50537 43.4837 4.16781 42.6355 4.16671C41.9415 4.165 41.254 4.30093 40.6128 4.56662C39.9716 4.83232 39.3895 5.22251 38.9001 5.71462L21.5439 23.0688C21.2669 23.3456 20.9175 23.5388 20.5357 23.6261C20.154 23.7135 19.7553 23.6914 19.3855 23.5625C18.1773 23.1372 16.906 22.9188 15.6251 22.9167H15.6355ZM10.4168 37.5C10.4168 37.9121 10.539 38.3149 10.7679 38.6575C10.9968 39.0001 11.3222 39.2671 11.7029 39.4248C12.0835 39.5825 12.5024 39.6237 12.9066 39.5433C13.3107 39.463 13.6819 39.2645 13.9733 38.9732C14.2646 38.6818 14.463 38.3106 14.5434 37.9065C14.6238 37.5024 14.5825 37.0835 14.4249 36.7028C14.2672 36.3221 14.0002 35.9967 13.6576 35.7678C13.315 35.5389 12.9122 35.4167 12.5001 35.4167C11.9476 35.4167 11.4177 35.6362 11.027 36.0269C10.6363 36.4176 10.4168 36.9475 10.4168 37.5Z" fill="#1A2D67"/>
</g>
<defs>
<clipPath id="clip0_227_45">
<rect width="50" height="50" fill="white"/>
</clipPath>
</defs>
</svg>
