<svg width="46" height="50" viewBox="0 0 46 50" fill="none" xmlns="http://www.w3.org/2000/svg">
<path d="M44.9894 28.4625L41.0311 14.2208C39.8709 10.0486 37.3493 6.38393 33.8672 3.80931C30.3851 1.23469 26.1424 -0.102111 21.8133 0.0113896C17.4843 0.12489 13.3174 1.68218 9.97497 4.43573C6.63259 7.18927 4.30652 10.981 3.36651 15.2083L0.301923 28.9896C-0.0365862 30.5124 -0.0287598 32.0917 0.324825 33.6111C0.67841 35.1304 1.36872 36.551 2.3448 37.7678C3.32088 38.9847 4.5578 39.9668 5.96424 40.6416C7.37068 41.3164 8.91072 41.6667 10.4707 41.6667H12.7915C13.2697 44.0214 14.5472 46.1385 16.4076 47.6591C18.2681 49.1798 20.597 50.0104 22.9998 50.0104C25.4027 50.0104 27.7316 49.1798 29.592 47.6591C31.4525 46.1385 32.73 44.0214 33.2082 41.6667H34.954C36.5599 41.6668 38.144 41.2956 39.5827 40.5822C41.0213 39.8687 42.2756 38.8323 43.2474 37.5539C44.2192 36.2755 44.8823 34.7897 45.1848 33.2126C45.4874 31.6355 45.4192 30.0098 44.9894 28.4625ZM22.9998 45.8333C21.7118 45.828 20.4569 45.4248 19.4067 44.679C18.3566 43.9331 17.5625 42.8811 17.1332 41.6667H28.8665C28.4372 42.8811 27.6431 43.9331 26.593 44.679C25.5428 45.4248 24.2879 45.828 22.9998 45.8333ZM39.929 35.0313C39.3485 35.8014 38.5963 36.4255 37.7324 36.8541C36.8684 37.2826 35.9163 37.5038 34.9519 37.5H10.4707C9.53481 37.4998 8.61093 37.2895 7.76722 36.8845C6.92351 36.4796 6.18152 35.8903 5.59601 35.1602C5.0105 34.4301 4.59643 33.5779 4.38434 32.6663C4.17226 31.7548 4.16759 30.8073 4.37067 29.8938L7.43317 16.1104C8.17141 12.79 9.9984 9.81168 12.6237 7.64885C15.249 5.48603 18.522 4.26286 21.9223 4.17378C25.3226 4.0847 28.6551 5.13483 31.3901 7.15723C34.125 9.17963 36.1054 12.0582 37.0165 15.3354L40.9748 29.5771C41.2364 30.5049 41.278 31.481 41.0965 32.4278C40.915 33.3745 40.5152 34.266 39.929 35.0313Z" fill="#333333"/>
</svg>
