<svg width="50" height="50" viewBox="0 0 50 50" fill="none" xmlns="http://www.w3.org/2000/svg">
<g clip-path="url(#clip0_227_34)">
<path d="M46.9894 28.4625L43.0311 14.2209C41.8709 10.0487 39.3493 6.38398 35.8672 3.80936C32.3851 1.23474 28.1424 -0.102065 23.8133 0.0114354C19.4843 0.124936 15.3174 1.68223 11.975 4.43577C8.63259 7.18932 6.30652 10.9811 5.36651 15.2084L2.30192 28.9896C1.96341 30.5124 1.97124 32.0918 2.32483 33.6111C2.67841 35.1305 3.36872 36.551 4.3448 37.7679C5.32088 38.9847 6.5578 39.9668 7.96424 40.6416C9.37068 41.3164 10.9107 41.6668 12.4707 41.6667H14.7915C15.2697 44.0215 16.5472 46.1385 18.4076 47.6592C20.2681 49.1798 22.597 50.0105 24.9998 50.0105C27.4027 50.0105 29.7316 49.1798 31.592 47.6592C33.4525 46.1385 34.73 44.0215 35.2082 41.6667H36.954C38.5599 41.6668 40.144 41.2957 41.5827 40.5822C43.0213 39.8688 44.2756 38.8323 45.2474 37.5539C46.2192 36.2755 46.8823 34.7897 47.1848 33.2126C47.4874 31.6355 47.4192 30.0098 46.9894 28.4625ZM24.9998 45.8334C23.7118 45.828 22.4569 45.4249 21.4067 44.679C20.3566 43.9332 19.5625 42.8811 19.1332 41.6667H30.8665C30.4372 42.8811 29.6431 43.9332 28.593 44.679C27.5428 45.4249 26.2879 45.828 24.9998 45.8334ZM41.929 35.0313C41.3485 35.8014 40.5963 36.4256 39.7324 36.8541C38.8684 37.2827 37.9163 37.5039 36.9519 37.5H12.4707C11.5348 37.4999 10.6109 37.2896 9.76722 36.8846C8.92351 36.4796 8.18152 35.8903 7.59601 35.1603C7.0105 34.4302 6.59643 33.5779 6.38434 32.6664C6.17226 31.7549 6.16759 30.8074 6.37067 29.8938L9.43317 16.1105C10.1714 12.7901 11.9984 9.81172 14.6237 7.6489C17.249 5.48608 20.522 4.2629 23.9223 4.17383C27.3226 4.08475 30.6551 5.13487 33.3901 7.15727C36.125 9.17967 38.1054 12.0583 39.0165 15.3355L42.9748 29.5771C43.2364 30.505 43.278 31.481 43.0965 32.4278C42.915 33.3746 42.5152 34.266 41.929 35.0313Z" fill="#1A2D67"/>
</g>
<defs>
<clipPath id="clip0_227_34">
<rect width="50" height="50" fill="white"/>
</clipPath>
</defs>
</svg>
