<svg width="20" height="20" viewBox="0 0 20 20" fill="none" xmlns="http://www.w3.org/2000/svg">
<g clip-path="url(#clip0_133_88)">
<path d="M13.3332 6.66666C13.1769 6.51043 12.965 6.42267 12.744 6.42267C12.5231 6.42267 12.3112 6.51043 12.1549 6.66666L9.99988 8.82166L7.84488 6.66666C7.68771 6.51486 7.47721 6.43086 7.25871 6.43276C7.04021 6.43466 6.8312 6.5223 6.67669 6.67681C6.52219 6.83132 6.43455 7.04033 6.43265 7.25882C6.43075 7.47732 6.51475 7.68782 6.66654 7.84499L8.82154 9.99999L6.66654 12.155C6.51475 12.3122 6.43075 12.5227 6.43265 12.7412C6.43455 12.9597 6.52219 13.1687 6.67669 13.3232C6.8312 13.4777 7.04021 13.5653 7.25871 13.5672C7.47721 13.5691 7.68771 13.4851 7.84488 13.3333L9.99988 11.1783L12.1549 13.3333C12.312 13.4851 12.5225 13.5691 12.741 13.5672C12.9595 13.5653 13.1686 13.4777 13.3231 13.3232C13.4776 13.1687 13.5652 12.9597 13.5671 12.7412C13.569 12.5227 13.485 12.3122 13.3332 12.155L11.1782 9.99999L13.3332 7.84499C13.4894 7.68872 13.5772 7.47679 13.5772 7.25582C13.5772 7.03485 13.4894 6.82293 13.3332 6.66666Z" fill="#E25E63"/>
<path d="M10 0C8.02219 0 6.08879 0.58649 4.4443 1.6853C2.79981 2.78412 1.51809 4.3459 0.761209 6.17317C0.00433286 8.00043 -0.193701 10.0111 0.192152 11.9509C0.578004 13.8907 1.53041 15.6725 2.92894 17.0711C4.32746 18.4696 6.10929 19.422 8.0491 19.8079C9.98891 20.1937 11.9996 19.9957 13.8268 19.2388C15.6541 18.4819 17.2159 17.2002 18.3147 15.5557C19.4135 13.9112 20 11.9778 20 10C19.9971 7.34872 18.9426 4.80684 17.0679 2.9321C15.1932 1.05736 12.6513 0.00286757 10 0ZM10 18.3333C8.35183 18.3333 6.74066 17.8446 5.37025 16.9289C3.99984 16.0132 2.93174 14.7117 2.30101 13.189C1.67028 11.6663 1.50525 9.99076 1.82679 8.37425C2.14834 6.75774 2.94201 5.27288 4.10745 4.10744C5.27289 2.94201 6.75774 2.14833 8.37425 1.82679C9.99076 1.50525 11.6663 1.67027 13.189 2.301C14.7118 2.93173 16.0132 3.99984 16.9289 5.37025C17.8446 6.74066 18.3333 8.35182 18.3333 10C18.3309 12.2094 17.4522 14.3276 15.8899 15.8899C14.3276 17.4522 12.2094 18.3309 10 18.3333Z" fill="#E25E63"/>
</g>
<defs>
<clipPath id="clip0_133_88">
<rect width="20" height="20" fill="white"/>
</clipPath>
</defs>
</svg>
