<svg width="20" height="20" viewBox="0 0 20 20" fill="none" xmlns="http://www.w3.org/2000/svg">
<g clip-path="url(#clip0_1_165)">
<path d="M0.833333 3.95818H3.11333C3.2922 4.61629 3.68264 5.19726 4.22444 5.61146C4.76623 6.02566 5.42927 6.25007 6.11125 6.25007C6.79323 6.25007 7.45627 6.02566 7.99806 5.61146C8.53986 5.19726 8.9303 4.61629 9.10917 3.95818H19.1667C19.3877 3.95818 19.5996 3.87039 19.7559 3.7141C19.9122 3.55782 20 3.34586 20 3.12485C20 2.90384 19.9122 2.69187 19.7559 2.53559C19.5996 2.37931 19.3877 2.29152 19.1667 2.29152H9.10917C8.9303 1.63341 8.53986 1.05244 7.99806 0.63824C7.45627 0.224043 6.79323 -0.000366211 6.11125 -0.000366211C5.42927 -0.000366211 4.76623 0.224043 4.22444 0.63824C3.68264 1.05244 3.2922 1.63341 3.11333 2.29152H0.833333C0.61232 2.29152 0.400358 2.37931 0.244078 2.53559C0.0877974 2.69187 0 2.90384 0 3.12485C0 3.34586 0.0877974 3.55782 0.244078 3.7141C0.400358 3.87039 0.61232 3.95818 0.833333 3.95818ZM6.11083 1.66652C6.39926 1.66652 6.68122 1.75205 6.92104 1.91229C7.16086 2.07253 7.34778 2.30029 7.45816 2.56677C7.56854 2.83324 7.59742 3.12647 7.54115 3.40936C7.48488 3.69225 7.34598 3.9521 7.14203 4.15605C6.93808 4.36 6.67823 4.49889 6.39534 4.55516C6.11245 4.61143 5.81923 4.58255 5.55275 4.47217C5.28628 4.3618 5.05852 4.17488 4.89827 3.93506C4.73803 3.69523 4.6525 3.41328 4.6525 3.12485C4.65294 2.73821 4.80673 2.36753 5.08012 2.09414C5.35352 1.82074 5.72419 1.66696 6.11083 1.66652Z" fill="#7C7C7C"/>
<path d="M19.1667 9.16672H16.8867C16.7081 8.50846 16.3178 7.92728 15.7761 7.51291C15.2343 7.09854 14.5712 6.87402 13.8892 6.87402C13.2071 6.87402 12.544 7.09854 12.0023 7.51291C11.4605 7.92728 11.0702 8.50846 10.8917 9.16672H0.833333C0.61232 9.16672 0.400358 9.25452 0.244078 9.4108C0.0877974 9.56708 0 9.77904 0 10.0001C0 10.2211 0.0877974 10.433 0.244078 10.5893C0.400358 10.7456 0.61232 10.8334 0.833333 10.8334H10.8917C11.0702 11.4916 11.4605 12.0728 12.0023 12.4872C12.544 12.9016 13.2071 13.1261 13.8892 13.1261C14.5712 13.1261 15.2343 12.9016 15.7761 12.4872C16.3178 12.0728 16.7081 11.4916 16.8867 10.8334H19.1667C19.3877 10.8334 19.5996 10.7456 19.7559 10.5893C19.9122 10.433 20 10.2211 20 10.0001C20 9.77904 19.9122 9.56708 19.7559 9.4108C19.5996 9.25452 19.3877 9.16672 19.1667 9.16672ZM13.8892 11.4584C13.6007 11.4584 13.3188 11.3729 13.079 11.2126C12.8391 11.0524 12.6522 10.8246 12.5418 10.5581C12.4315 10.2917 12.4026 9.99843 12.4589 9.71555C12.5151 9.43266 12.654 9.17281 12.858 8.96885C13.0619 8.7649 13.3218 8.62601 13.6047 8.56974C13.8875 8.51347 14.1808 8.54235 14.4472 8.65273C14.7137 8.76311 14.9415 8.95002 15.1017 9.18985C15.262 9.42967 15.3475 9.71162 15.3475 10.0001C15.3471 10.3867 15.1933 10.7574 14.9199 11.0308C14.6465 11.3042 14.2758 11.4579 13.8892 11.4584Z" fill="#7C7C7C"/>
<path d="M19.1667 16.0416H9.10917C8.9303 15.3835 8.53986 14.8026 7.99806 14.3884C7.45627 13.9742 6.79323 13.7498 6.11125 13.7498C5.42927 13.7498 4.76623 13.9742 4.22444 14.3884C3.68264 14.8026 3.2922 15.3835 3.11333 16.0416H0.833333C0.61232 16.0416 0.400358 16.1294 0.244078 16.2857C0.0877974 16.442 0 16.654 0 16.875C0 17.096 0.0877974 17.3079 0.244078 17.4642C0.400358 17.6205 0.61232 17.7083 0.833333 17.7083H3.11333C3.2922 18.3664 3.68264 18.9474 4.22444 19.3616C4.76623 19.7758 5.42927 20.0002 6.11125 20.0002C6.79323 20.0002 7.45627 19.7758 7.99806 19.3616C8.53986 18.9474 8.9303 18.3664 9.10917 17.7083H19.1667C19.3877 17.7083 19.5996 17.6205 19.7559 17.4642C19.9122 17.3079 20 17.096 20 16.875C20 16.654 19.9122 16.442 19.7559 16.2857C19.5996 16.1294 19.3877 16.0416 19.1667 16.0416ZM6.11083 18.3333C5.8224 18.3333 5.54045 18.2478 5.30063 18.0875C5.0608 17.9273 4.87389 17.6995 4.76351 17.4331C4.65313 17.1666 4.62425 16.8734 4.68052 16.5905C4.73679 16.3076 4.87568 16.0477 5.07964 15.8438C5.28359 15.6398 5.54344 15.5009 5.82633 15.4447C6.10922 15.3884 6.40244 15.4173 6.66891 15.5276C6.93539 15.638 7.16315 15.8249 7.32339 16.0648C7.48364 16.3046 7.56917 16.5865 7.56917 16.875C7.56851 17.2615 7.41465 17.6321 7.1413 17.9054C6.86795 18.1788 6.4974 18.3326 6.11083 18.3333Z" fill="#7C7C7C"/>
</g>
<defs>
<clipPath id="clip0_1_165">
<rect width="20" height="20" fill="white"/>
</clipPath>
</defs>
</svg>
