<svg width="50" height="50" viewBox="0 0 50 50" fill="none" xmlns="http://www.w3.org/2000/svg">
<g clip-path="url(#clip0_1_169)">
<path d="M24.9998 16.6667C23.3517 16.6667 21.7405 17.1554 20.3701 18.0711C18.9997 18.9868 17.9316 20.2882 17.3008 21.811C16.6701 23.3337 16.5051 25.0092 16.8266 26.6257C17.1482 28.2423 17.9418 29.7271 19.1073 30.8925C20.2727 32.058 21.7576 32.8517 23.3741 33.1732C24.9906 33.4947 26.6662 33.3297 28.1889 32.699C29.7116 32.0683 31.0131 31.0002 31.9288 29.6297C32.8444 28.2593 33.3332 26.6482 33.3332 25C33.3332 22.7899 32.4552 20.6702 30.8924 19.1074C29.3296 17.5446 27.21 16.6667 24.9998 16.6667ZM24.9998 29.1667C24.1758 29.1667 23.3702 28.9223 22.685 28.4644C21.9998 28.0066 21.4657 27.3559 21.1503 26.5945C20.835 25.8331 20.7525 24.9954 20.9132 24.1871C21.074 23.3789 21.4708 22.6364 22.0536 22.0537C22.6363 21.471 23.3787 21.0742 24.187 20.9134C24.9952 20.7526 25.833 20.8351 26.5944 21.1505C27.3557 21.4659 28.0065 21.9999 28.4643 22.6851C28.9221 23.3703 29.1665 24.1759 29.1665 25C29.1665 26.1051 28.7275 27.1649 27.9461 27.9463C27.1647 28.7277 26.1049 29.1667 24.9998 29.1667Z" fill="#333333"/>
<path d="M44.3624 28.9583L43.4374 28.425C43.8538 26.1593 43.8538 23.8366 43.4374 21.5708L44.3624 21.0375C45.0737 20.6271 45.6973 20.0806 46.1974 19.4293C46.6975 18.7779 47.0645 18.0345 47.2773 17.2413C47.4901 16.4481 47.5446 15.6208 47.4376 14.8066C47.3307 13.9924 47.0645 13.2072 46.6541 12.4958C46.2437 11.7845 45.6972 11.161 45.0459 10.6608C44.3945 10.1607 43.651 9.79376 42.8579 9.58096C42.0647 9.36816 41.2374 9.31367 40.4232 9.4206C39.6089 9.52753 38.8237 9.79379 38.1124 10.2042L37.1853 10.7396C35.4344 9.24358 33.4221 8.08385 31.2499 7.31875V6.25C31.2499 4.5924 30.5914 3.00268 29.4193 1.83058C28.2472 0.65848 26.6575 0 24.9999 0C23.3423 0 21.7526 0.65848 20.5805 1.83058C19.4084 3.00268 18.7499 4.5924 18.7499 6.25V7.31875C16.5778 8.0866 14.5663 9.24917 12.8166 10.7479L11.8853 10.2083C10.4487 9.37953 8.74174 9.15536 7.13987 9.58513C5.538 10.0149 4.17246 11.0634 3.34366 12.5C2.51485 13.9366 2.29068 15.6436 2.72045 17.2455C3.15022 18.8473 4.19873 20.2129 5.63532 21.0417L6.56032 21.575C6.14388 23.8407 6.14388 26.1634 6.56032 28.4292L5.63532 28.9625C4.19873 29.7913 3.15022 31.1568 2.72045 32.7587C2.29068 34.3606 2.51485 36.0676 3.34366 37.5042C4.17246 38.9408 5.538 39.9893 7.13987 40.419C8.74174 40.8488 10.4487 40.6246 11.8853 39.7958L12.8124 39.2604C14.564 40.7566 16.5769 41.9164 18.7499 42.6812V43.75C18.7499 45.4076 19.4084 46.9973 20.5805 48.1694C21.7526 49.3415 23.3423 50 24.9999 50C26.6575 50 28.2472 49.3415 29.4193 48.1694C30.5914 46.9973 31.2499 45.4076 31.2499 43.75V42.6812C33.422 41.9134 35.4336 40.7508 37.1832 39.2521L38.1145 39.7896C39.5511 40.6184 41.2581 40.8426 42.8599 40.4128C44.4618 39.983 45.8274 38.9345 46.6562 37.4979C47.485 36.0613 47.7091 34.3543 47.2794 32.7525C46.8496 31.1506 45.8011 29.7851 44.3645 28.9562L44.3624 28.9583ZM39.0541 21.0917C39.7596 23.648 39.7596 26.3478 39.0541 28.9042C38.9309 29.3491 38.959 29.8224 39.1339 30.2496C39.3089 30.6768 39.6208 31.0339 40.0207 31.2646L42.2791 32.5687C42.7578 32.845 43.1073 33.3002 43.2505 33.834C43.3936 34.3679 43.3189 34.9369 43.0426 35.4156C42.7663 35.8944 42.3112 36.2438 41.7773 36.387C41.2434 36.5302 40.6745 36.4554 40.1957 36.1792L37.9332 34.8708C37.533 34.639 37.067 34.547 36.6087 34.6092C36.1505 34.6715 35.7259 34.8844 35.402 35.2146C33.5476 37.1076 31.2115 38.4583 28.6457 39.1208C28.1979 39.236 27.8011 39.4968 27.5178 39.8623C27.2345 40.2278 27.0809 40.6772 27.0812 41.1396V43.75C27.0812 44.3025 26.8617 44.8324 26.471 45.2231C26.0803 45.6138 25.5504 45.8333 24.9978 45.8333C24.4453 45.8333 23.9154 45.6138 23.5247 45.2231C23.134 44.8324 22.9145 44.3025 22.9145 43.75V41.1417C22.9147 40.6793 22.7611 40.2299 22.4778 39.8644C22.1946 39.4989 21.7978 39.2381 21.3499 39.1229C18.784 38.4577 16.4485 37.1041 14.5957 35.2083C14.2718 34.8782 13.8473 34.6652 13.389 34.603C12.9307 34.5407 12.4647 34.6328 12.0645 34.8646L9.80616 36.1708C9.56913 36.3098 9.30697 36.4005 9.03475 36.4377C8.76253 36.4749 8.48564 36.4579 8.22002 36.3877C7.95439 36.3175 7.70529 36.1954 7.48703 36.0285C7.26878 35.8616 7.08569 35.6532 6.94832 35.4153C6.81094 35.1773 6.72198 34.9146 6.68657 34.6421C6.65115 34.3696 6.66998 34.0929 6.74197 33.8277C6.81396 33.5626 6.93768 33.3143 7.10602 33.0971C7.27435 32.88 7.48398 32.6983 7.72282 32.5625L9.98116 31.2583C10.381 31.0276 10.693 30.6706 10.8679 30.2434C11.0429 29.8161 11.071 29.3429 10.9478 28.8979C10.2423 26.3415 10.2423 23.6418 10.9478 21.0854C11.0688 20.6414 11.0394 20.1699 10.8641 19.7444C10.6889 19.3189 10.3776 18.9633 9.97907 18.7333L7.72074 17.4292C7.24197 17.1529 6.89255 16.6978 6.74936 16.1639C6.60617 15.63 6.68093 15.0611 6.9572 14.5823C7.23346 14.1035 7.68861 13.7541 8.2225 13.6109C8.75639 13.4677 9.3253 13.5425 9.80407 13.8187L12.0666 15.1271C12.4657 15.3594 12.9307 15.4525 13.3885 15.3918C13.8463 15.3311 14.271 15.12 14.5957 14.7917C16.4501 12.8986 18.7862 11.548 21.352 10.8854C21.8012 10.7699 22.1991 10.5078 22.4825 10.1406C22.7659 9.77344 22.9187 9.32217 22.9166 8.85833V6.25C22.9166 5.69747 23.1361 5.16756 23.5268 4.77686C23.9175 4.38616 24.4474 4.16667 24.9999 4.16667C25.5524 4.16667 26.0823 4.38616 26.473 4.77686C26.8637 5.16756 27.0832 5.69747 27.0832 6.25V8.85833C27.083 9.32074 27.2366 9.77009 27.5199 10.1356C27.8032 10.5011 28.2 10.7619 28.6478 10.8771C31.2145 11.542 33.5507 12.8956 35.4041 14.7917C35.728 15.1218 36.1525 15.3348 36.6108 15.397C37.0691 15.4593 37.5351 15.3672 37.9353 15.1354L40.1937 13.8292C40.4307 13.6902 40.6928 13.5995 40.9651 13.5623C41.2373 13.5251 41.5142 13.5421 41.7798 13.6123C42.0454 13.6825 42.2945 13.8046 42.5128 13.9715C42.731 14.1384 42.9141 14.3468 43.0515 14.5847C43.1889 14.8227 43.2778 15.0854 43.3132 15.3579C43.3487 15.6304 43.3298 15.9071 43.2578 16.1723C43.1859 16.4374 43.0621 16.6857 42.8938 16.9029C42.7255 17.12 42.5158 17.3017 42.277 17.4375L40.0187 18.7417C39.6208 18.9723 39.3105 19.3281 39.136 19.7535C38.9615 20.179 38.9327 20.6502 39.0541 21.0938V21.0917Z" fill="#333333"/>
</g>
<defs>
<clipPath id="clip0_1_169">
<rect width="50" height="50" fill="white"/>
</clipPath>
</defs>
</svg>
