<svg width="20" height="20" viewBox="0 0 20 20" fill="none" xmlns="http://www.w3.org/2000/svg">
<g id="folder-upload 1" clip-path="url(#clip0_133_122)">
<path id="Vector" d="M15.8333 2.5H10.3933C10.265 2.5 10.135 2.47 10.0208 2.4125L7.39333 1.09917C7.0475 0.925834 6.66083 0.834168 6.27333 0.834168H4.16667C1.86917 0.833334 0 2.7025 0 5V15C0 17.2975 1.86917 19.1667 4.16667 19.1667H6.66667C7.12667 19.1667 7.5 18.7942 7.5 18.3333C7.5 17.8725 7.12667 17.5 6.66667 17.5H4.16667C2.78833 17.5 1.66667 16.3783 1.66667 15V7.5H18.3333V15C18.3333 16.3783 17.2117 17.5 15.8333 17.5H13.3333C12.8733 17.5 12.5 17.8725 12.5 18.3333C12.5 18.7942 12.8733 19.1667 13.3333 19.1667H15.8333C18.1308 19.1667 20 17.2975 20 15V6.66667C20 4.36917 18.1308 2.5 15.8333 2.5ZM1.66667 5C1.66667 3.62167 2.78833 2.5 4.16667 2.5H6.27333C6.40167 2.5 6.53 2.53 6.64583 2.58833L9.27583 3.9025C9.62167 4.075 10.0075 4.16583 10.3933 4.16583H15.8333C16.9183 4.16583 17.835 4.865 18.18 5.8325H1.66667V5ZM11.9108 13.2467L10.8333 12.1692V18.3333C10.8333 18.7942 10.46 19.1667 10 19.1667C9.54 19.1667 9.16667 18.7942 9.16667 18.3333V12.1692L8.08917 13.2467C7.92667 13.4092 7.71333 13.4908 7.5 13.4908C7.28667 13.4908 7.07333 13.4092 6.91083 13.2467C6.585 12.9208 6.585 12.3942 6.91083 12.0683L8.255 10.7242C9.18667 9.79167 10.8125 9.79167 11.745 10.7242L13.0892 12.0683C13.415 12.3942 13.415 12.9208 13.0892 13.2467C12.7633 13.5725 12.2367 13.5725 11.9108 13.2467Z" fill="#777777"/>
</g>
<defs>
<clipPath id="clip0_133_122">
<rect width="20" height="20" fill="white"/>
</clipPath>
</defs>
</svg>
