<svg width="20" height="20" viewBox="0 0 20 20" fill="none" xmlns="http://www.w3.org/2000/svg">
<g id="Union 1" clip-path="url(#clip0_172_99)">
<path id="Vector" fill-rule="evenodd" clip-rule="evenodd" d="M18.1943 2.2222C18.1943 1.99209 18.0077 1.80554 17.7776 1.80554H2.2222C1.99209 1.80554 1.80554 1.99209 1.80554 2.2222V4.16663C1.80554 4.39675 1.99209 4.58329 2.2222 4.58329H17.7776C18.0077 4.58329 18.1943 4.39675 18.1943 4.16663V2.2222ZM2.2222 0C0.994914 0 0 0.994914 0 2.2222V4.16663C0 5.39392 0.994914 6.38883 2.2222 6.38883H9.09688V9.38899L4.45559 9.375C4.45171 9.37495 4.44783 9.37493 4.44395 9.37493C3.94536 9.37493 3.54118 9.77911 3.54118 10.2777V13.6109H2.2222C0.994914 13.6109 0 14.6059 0 15.8331V17.7776C0 19.0049 0.994914 19.9998 2.2222 19.9998H6.94438C8.17167 19.9998 9.16658 19.0049 9.16658 17.7776V15.8331C9.16658 14.6059 8.17167 13.6109 6.94438 13.6109H5.34672V11.1832L14.3747 11.2104V13.6109H13.0555C11.8282 13.6109 10.8333 14.6059 10.8333 15.8331V17.7776C10.8333 19.0049 11.8282 19.9998 13.0555 19.9998H17.7777C19.005 19.9998 19.9999 19.0049 19.9999 17.7776V15.8331C19.9999 14.6059 19.005 13.6109 17.7777 13.6109H16.1803V10.3188V10.3131C16.1818 9.81453 15.7788 9.40913 15.2803 9.40763L10.9024 9.39443V6.38883H17.7776C19.0049 6.38883 19.9998 5.39392 19.9998 4.16663V2.2222C19.9998 0.994914 19.0049 0 17.7776 0H2.2222ZM2.2222 15.4165H6.94438C7.1745 15.4165 7.36104 15.603 7.36104 15.8331V17.7776C7.36104 18.0077 7.1745 18.1942 6.94438 18.1942H2.2222C1.99209 18.1942 1.80554 18.0077 1.80554 17.7776V15.8331C1.80554 15.603 1.99209 15.4165 2.2222 15.4165ZM13.0555 15.4165H17.7777C18.0078 15.4165 18.1944 15.603 18.1944 15.8331V17.7776C18.1944 18.0077 18.0078 18.1942 17.7777 18.1942H13.0555C12.8254 18.1942 12.6389 18.0077 12.6389 17.7776V15.8331C12.6389 15.603 12.8254 15.4165 13.0555 15.4165Z" fill="#7C7C7C"/>
</g>
<defs>
<clipPath id="clip0_172_99">
<rect width="20" height="20" fill="white"/>
</clipPath>
</defs>
</svg>
